<svg id="my-svg" width="100%" xmlns="http://www.w3.org/2000/svg" xmlns:xlink="http://www.w3.org/1999/xlink" style="max-width: 1901.66px; background-color: white;" viewBox="-8 -8 1901.65625 134" role="graphics-document document" aria-roledescription="flowchart-v2"><style>#my-svg{font-family:"trebuchet ms",verdana,arial,sans-serif;font-size:16px;fill:#000000;}#my-svg .error-icon{fill:#fef3c7;}#my-svg .error-text{fill:#010c38;stroke:#010c38;}#my-svg .edge-thickness-normal{stroke-width:2px;}#my-svg .edge-thickness-thick{stroke-width:3.5px;}#my-svg .edge-pattern-solid{stroke-dasharray:0;}#my-svg .edge-pattern-dashed{stroke-dasharray:3;}#my-svg .edge-pattern-dotted{stroke-dasharray:2;}#my-svg .marker{fill:#64748b;stroke:#64748b;}#my-svg .marker.cross{stroke:#64748b;}#my-svg svg{font-family:"trebuchet ms",verdana,arial,sans-serif;font-size:16px;}#my-svg .label{font-family:"trebuchet ms",verdana,arial,sans-serif;color:#000000;}#my-svg .cluster-label text{fill:#000000;}#my-svg .cluster-label span,#my-svg p{color:#000000;}#my-svg .label text,#my-svg span,#my-svg p{fill:#000000;color:#000000;}#my-svg .node rect,#my-svg .node circle,#my-svg .node ellipse,#my-svg .node polygon,#my-svg .node path{fill:#ffffff;stroke:#94a3b8;stroke-width:1px;}#my-svg .flowchart-label text{text-anchor:middle;}#my-svg .node .katex path{fill:#000;stroke:#000;stroke-width:1px;}#my-svg .node .label{text-align:center;}#my-svg .node.clickable{cursor:pointer;}#my-svg .arrowheadPath{fill:#000000;}#my-svg .edgePath .path{stroke:#64748b;stroke-width:2.0px;}#my-svg .flowchart-link{stroke:#64748b;fill:none;}#my-svg .edgeLabel{background-color:#ffffff;text-align:center;}#my-svg .edgeLabel rect{opacity:0.5;background-color:#ffffff;fill:#ffffff;}#my-svg .labelBkg{background-color:rgba(255, 255, 255, 0.5);}#my-svg .cluster rect{fill:#f8fafc;stroke:#cbd5e1;stroke-width:1px;}#my-svg .cluster text{fill:#000000;}#my-svg .cluster span,#my-svg p{color:#000000;}#my-svg div.mermaidTooltip{position:absolute;text-align:center;max-width:200px;padding:2px;font-family:"trebuchet ms",verdana,arial,sans-serif;font-size:12px;background:#fef3c7;border:1px solid hsl(48, 56.4912280702%, 78.8235294118%);border-radius:2px;pointer-events:none;z-index:100;}#my-svg .flowchartTitleText{text-anchor:middle;font-size:18px;fill:#000000;}#my-svg :root{--mermaid-font-family:"trebuchet ms",verdana,arial,sans-serif;}</style><g><marker id="my-svg_flowchart-pointEnd" class="marker flowchart" viewBox="0 0 10 10" refX="6" refY="5" markerUnits="userSpaceOnUse" markerWidth="12" markerHeight="12" orient="auto"><path d="M 0 0 L 10 5 L 0 10 z" class="arrowMarkerPath" style="stroke-width: 1; stroke-dasharray: 1, 0;"/></marker><marker id="my-svg_flowchart-pointStart" class="marker flowchart" viewBox="0 0 10 10" refX="4.5" refY="5" markerUnits="userSpaceOnUse" markerWidth="12" markerHeight="12" orient="auto"><path d="M 0 5 L 10 10 L 10 0 z" class="arrowMarkerPath" style="stroke-width: 1; stroke-dasharray: 1, 0;"/></marker><marker id="my-svg_flowchart-circleEnd" class="marker flowchart" viewBox="0 0 10 10" refX="11" refY="5" markerUnits="userSpaceOnUse" markerWidth="11" markerHeight="11" orient="auto"><circle cx="5" cy="5" r="5" class="arrowMarkerPath" style="stroke-width: 1; stroke-dasharray: 1, 0;"/></marker><marker id="my-svg_flowchart-circleStart" class="marker flowchart" viewBox="0 0 10 10" refX="-1" refY="5" markerUnits="userSpaceOnUse" markerWidth="11" markerHeight="11" orient="auto"><circle cx="5" cy="5" r="5" class="arrowMarkerPath" style="stroke-width: 1; stroke-dasharray: 1, 0;"/></marker><marker id="my-svg_flowchart-crossEnd" class="marker cross flowchart" viewBox="0 0 11 11" refX="12" refY="5.2" markerUnits="userSpaceOnUse" markerWidth="11" markerHeight="11" orient="auto"><path d="M 1,1 l 9,9 M 10,1 l -9,9" class="arrowMarkerPath" style="stroke-width: 2; stroke-dasharray: 1, 0;"/></marker><marker id="my-svg_flowchart-crossStart" class="marker cross flowchart" viewBox="0 0 11 11" refX="-1" refY="5.2" markerUnits="userSpaceOnUse" markerWidth="11" markerHeight="11" orient="auto"><path d="M 1,1 l 9,9 M 10,1 l -9,9" class="arrowMarkerPath" style="stroke-width: 2; stroke-dasharray: 1, 0;"/></marker><g class="root"><g class="clusters"/><g class="edgePaths"><path d="M204.172,59L208.339,59C212.505,59,220.839,59,228.289,59C235.739,59,242.305,59,245.589,59L248.872,59" id="L-db-snapshot-0" class="edge-thickness-normal edge-pattern-solid flowchart-link LS-db LE-snapshot" style="fill:none;" marker-end="url(#my-svg_flowchart-pointEnd)"/><path d="M494.5,59L498.667,59C502.833,59,511.167,59,518.617,59C526.067,59,532.633,59,535.917,59L539.2,59" id="L-snapshot-structs-0" class="edge-thickness-normal edge-pattern-solid flowchart-link LS-snapshot LE-structs" style="fill:none;" marker-end="url(#my-svg_flowchart-pointEnd)"/><path d="M713.047,59L717.214,59C721.38,59,729.714,59,737.164,59C744.614,59,751.18,59,754.464,59L757.747,59" id="L-structs-verify-0" class="edge-thickness-normal edge-pattern-solid flowchart-link LS-structs LE-verify" style="fill:none;" marker-end="url(#my-svg_flowchart-pointEnd)"/><path d="M900.451,42L911.92,37.833C923.389,33.667,946.327,25.333,961.08,21.167C975.832,17,982.399,17,985.682,17L988.966,17" id="L-verify-abMaps-0" class="edge-thickness-normal edge-pattern-solid flowchart-link LS-verify LE-abMaps" style="fill:none;" marker-end="url(#my-svg_flowchart-pointEnd)"/><path d="M900.451,76L911.92,80.167C923.389,84.333,946.327,92.667,964.388,96.833C982.449,101,995.633,101,1002.225,101L1008.817,101" id="L-verify-devmap-0" class="edge-thickness-normal edge-pattern-solid flowchart-link LS-verify LE-devmap" style="fill:none;" marker-end="url(#my-svg_flowchart-pointEnd)"/><path d="M1137.734,17L1141.901,17C1146.068,17,1154.401,17,1166.938,20.801C1179.476,24.603,1196.217,32.206,1204.588,36.007L1212.959,39.809" id="L-abMaps-runtime-0" class="edge-thickness-normal edge-pattern-solid flowchart-link LS-abMaps LE-runtime" style="fill:none;" marker-end="url(#my-svg_flowchart-pointEnd)"/><path d="M1117.883,101L1125.358,101C1132.833,101,1147.784,101,1163.63,97.199C1179.476,93.397,1196.217,85.794,1204.588,81.993L1212.959,78.191" id="L-devmap-runtime-0" class="edge-thickness-normal edge-pattern-solid flowchart-link LS-devmap LE-runtime" style="fill:none;" marker-end="url(#my-svg_flowchart-pointEnd)"/><path d="M1322.703,59L1326.87,59C1331.036,59,1339.37,59,1346.82,59C1354.27,59,1360.836,59,1364.12,59L1367.403,59" id="L-runtime-xdp-0" class="edge-thickness-normal edge-pattern-solid flowchart-link LS-runtime LE-xdp" style="fill:none;" marker-end="url(#my-svg_flowchart-pointEnd)"/><path d="M1449.614,42L1456.811,37.833C1464.008,33.667,1478.403,25.333,1489.051,21.167C1499.699,17,1506.602,17,1510.053,17L1513.505,17" id="L-xdp-counters-0" class="edge-thickness-normal edge-pattern-solid flowchart-link LS-xdp LE-counters" style="fill:none;" marker-end="url(#my-svg_flowchart-pointEnd)"/><path d="M1449.614,76L1456.811,80.167C1464.008,84.333,1478.403,92.667,1488.883,96.833C1499.364,101,1505.93,101,1509.214,101L1512.497,101" id="L-xdp-ringbuf-0" class="edge-thickness-normal edge-pattern-solid flowchart-link LS-xdp LE-ringbuf" style="fill:none;" marker-end="url(#my-svg_flowchart-pointEnd)"/><path d="M1648.039,17L1652.374,17C1656.708,17,1665.378,17,1680.616,20.871C1695.855,24.742,1717.663,32.485,1728.568,36.356L1739.472,40.227" id="L-counters-metrics-0" class="edge-thickness-normal edge-pattern-solid flowchart-link LS-counters LE-metrics" style="fill:none;" marker-end="url(#my-svg_flowchart-pointEnd)"/><path d="M1649.047,101L1653.214,101C1657.38,101,1665.714,101,1680.784,97.129C1695.855,93.258,1717.663,85.515,1728.568,81.644L1739.472,77.773" id="L-ringbuf-metrics-0" class="edge-thickness-normal edge-pattern-solid flowchart-link LS-ringbuf LE-metrics" style="fill:none;" marker-end="url(#my-svg_flowchart-pointEnd)"/></g><g class="edgeLabels"><g class="edgeLabel"><g class="label" transform="translate(0, 0)"><foreignObject width="0" height="0"><div xmlns="http://www.w3.org/1999/xhtml" style="display: inline-block; white-space: nowrap;"><span class="edgeLabel"></span></div></foreignObject></g></g><g class="edgeLabel"><g class="label" transform="translate(0, 0)"><foreignObject width="0" height="0"><div xmlns="http://www.w3.org/1999/xhtml" style="display: inline-block; white-space: nowrap;"><span class="edgeLabel"></span></div></foreignObject></g></g><g class="edgeLabel"><g class="label" transform="translate(0, 0)"><foreignObject width="0" height="0"><div xmlns="http://www.w3.org/1999/xhtml" style="display: inline-block; white-space: nowrap;"><span class="edgeLabel"></span></div></foreignObject></g></g><g class="edgeLabel"><g class="label" transform="translate(0, 0)"><foreignObject width="0" height="0"><div xmlns="http://www.w3.org/1999/xhtml" style="display: inline-block; white-space: nowrap;"><span class="edgeLabel"></span></div></foreignObject></g></g><g class="edgeLabel"><g class="label" transform="translate(0, 0)"><foreignObject width="0" height="0"><div xmlns="http://www.w3.org/1999/xhtml" style="display: inline-block; white-space: nowrap;"><span class="edgeLabel"></span></div></foreignObject></g></g><g class="edgeLabel"><g class="label" transform="translate(0, 0)"><foreignObject width="0" height="0"><div xmlns="http://www.w3.org/1999/xhtml" style="display: inline-block; white-space: nowrap;"><span class="edgeLabel"></span></div></foreignObject></g></g><g class="edgeLabel"><g class="label" transform="translate(0, 0)"><foreignObject width="0" height="0"><div xmlns="http://www.w3.org/1999/xhtml" style="display: inline-block; white-space: nowrap;"><span class="edgeLabel"></span></div></foreignObject></g></g><g class="edgeLabel"><g class="label" transform="translate(0, 0)"><foreignObject width="0" height="0"><div xmlns="http://www.w3.org/1999/xhtml" style="display: inline-block; white-space: nowrap;"><span class="edgeLabel"></span></div></foreignObject></g></g><g class="edgeLabel"><g class="label" transform="translate(0, 0)"><foreignObject width="0" height="0"><div xmlns="http://www.w3.org/1999/xhtml" style="display: inline-block; white-space: nowrap;"><span class="edgeLabel"></span></div></foreignObject></g></g><g class="edgeLabel"><g class="label" transform="translate(0, 0)"><foreignObject width="0" height="0"><div xmlns="http://www.w3.org/1999/xhtml" style="display: inline-block; white-space: nowrap;"><span class="edgeLabel"></span></div></foreignObject></g></g><g class="edgeLabel"><g class="label" transform="translate(0, 0)"><foreignObject width="0" height="0"><div xmlns="http://www.w3.org/1999/xhtml" style="display: inline-block; white-space: nowrap;"><span class="edgeLabel"></span></div></foreignObject></g></g><g class="edgeLabel"><g class="label" transform="translate(0, 0)"><foreignObject width="0" height="0"><div xmlns="http://www.w3.org/1999/xhtml" style="display: inline-block; white-space: nowrap;"><span class="edgeLabel"></span></div></foreignObject></g></g></g><g class="nodes"><g class="node default default flowchart-label" id="flowchart-db-0" data-node="true" data-id="db" transform="translate(102.0859375, 59)"><path style="" d="M 0,15.506479327858738 a 102.0859375,15.506479327858738 0,0,0 204.171875 0 a 102.0859375,15.506479327858738 0,0,0 -204.171875 0 l 0,49.50647932785874 a 102.0859375,15.506479327858738 0,0,0 204.171875 0 l 0,-49.50647932785874" transform="translate(-102.0859375,-40.259718991788105)"/><g class="label" style="" transform="translate(-94.5859375, -9.5)"><rect/><foreignObject width="189.171875" height="19"><div xmlns="http://www.w3.org/1999/xhtml" style="display: inline-block; white-space: nowrap;"><span class="nodeLabel">PostgreSQL policy state</span></div></foreignObject></g></g><g class="node default default flowchart-label" id="flowchart-snapshot-1" data-node="true" data-id="snapshot" transform="translate(374.3359375, 59)"><rect class="basic label-container" style="" rx="0" ry="0" x="-120.1640625" y="-17" width="240.328125" height="34"/><g class="label" style="" transform="translate(-112.6640625, -9.5)"><rect/><foreignObject width="225.328125" height="19"><div xmlns="http://www.w3.org/1999/xhtml" style="display: inline-block; white-space: nowrap;"><span class="nodeLabel">Signed PolicySnapshot JSON</span></div></foreignObject></g></g><g class="node default default flowchart-label" id="flowchart-structs-2" data-node="true" data-id="structs" transform="translate(628.7734375, 59)"><rect class="basic label-container" style="" rx="0" ry="0" x="-84.2734375" y="-17" width="168.546875" height="34"/><g class="label" style="" transform="translate(-76.7734375, -9.5)"><rect/><foreignObject width="153.546875" height="19"><div xmlns="http://www.w3.org/1999/xhtml" style="display: inline-block; white-space: nowrap;"><span class="nodeLabel">Go contract structs</span></div></foreignObject></g></g><g class="node default default flowchart-label" id="flowchart-verify-3" data-node="true" data-id="verify" transform="translate(853.65625, 59)"><rect class="basic label-container" style="" rx="0" ry="0" x="-90.609375" y="-17" width="181.21875" height="34"/><g class="label" style="" transform="translate(-83.109375, -9.5)"><rect/><foreignObject width="166.21875" height="19"><div xmlns="http://www.w3.org/1999/xhtml" style="display: inline-block; white-space: nowrap;"><span class="nodeLabel">VerifyPolicySnapshot</span></div></foreignObject></g></g><g class="node default default flowchart-label" id="flowchart-abMaps-4" data-node="true" data-id="abMaps" transform="translate(1066, 17)"><rect class="basic label-container" style="" rx="0" ry="0" x="-71.734375" y="-17" width="143.46875" height="34"/><g class="label" style="" transform="translate(-64.234375, -9.5)"><rect/><foreignObject width="128.46875" height="19"><div xmlns="http://www.w3.org/1999/xhtml" style="display: inline-block; white-space: nowrap;"><span class="nodeLabel">A/B policy maps</span></div></foreignObject></g></g><g class="node default default flowchart-label" id="flowchart-devmap-5" data-node="true" data-id="devmap" transform="translate(1066, 101)"><rect class="basic label-container" style="" rx="0" ry="0" x="-51.8828125" y="-17" width="103.765625" height="34"/><g class="label" style="" transform="translate(-44.3828125, -9.5)"><rect/><foreignObject width="88.765625" height="19"><div xmlns="http://www.w3.org/1999/xhtml" style="display: inline-block; white-space: nowrap;"><span class="nodeLabel">tx_devmap</span></div></foreignObject></g></g><g class="node default default flowchart-label" id="flowchart-runtime-6" data-node="true" data-id="runtime" transform="translate(1255.21875, 59)"><rect class="basic label-container" style="" rx="0" ry="0" x="-67.484375" y="-17" width="134.96875" height="34"/><g class="label" style="" transform="translate(-59.984375, -9.5)"><rect/><foreignObject width="119.96875" height="19"><div xmlns="http://www.w3.org/1999/xhtml" style="display: inline-block; white-space: nowrap;"><span class="nodeLabel">runtime_config</span></div></foreignObject></g></g><g class="node default default flowchart-label" id="flowchart-xdp-7" data-node="true" data-id="xdp" transform="translate(1420.25, 59)"><rect class="basic label-container" style="" rx="0" ry="0" x="-47.546875" y="-17" width="95.09375" height="34"/><g class="label" style="" transform="translate(-40.046875, -9.5)"><rect/><foreignObject width="80.09375" height="19"><div xmlns="http://www.w3.org/1999/xhtml" style="display: inline-block; white-space: nowrap;"><span class="nodeLabel">xdp_entry</span></div></foreignObject></g></g><g class="node default default flowchart-label" id="flowchart-counters-8" data-node="true" data-id="counters" transform="translate(1583.421875, 17)"><rect class="basic label-container" style="" rx="0" ry="0" x="-64.6171875" y="-17" width="129.234375" height="34"/><g class="label" style="" transform="translate(-57.1171875, -9.5)"><rect/><foreignObject width="114.234375" height="19"><div xmlns="http://www.w3.org/1999/xhtml" style="display: inline-block; white-space: nowrap;"><span class="nodeLabel">drop_counters</span></div></foreignObject></g></g><g class="node default default flowchart-label" id="flowchart-ringbuf-9" data-node="true" data-id="ringbuf" transform="translate(1583.421875, 101)"><rect class="basic label-container" style="" rx="0" ry="0" x="-65.625" y="-17" width="131.25" height="34"/><g class="label" style="" transform="translate(-58.125, -9.5)"><rect/><foreignObject width="116.25" height="19"><div xmlns="http://www.w3.org/1999/xhtml" style="display: inline-block; white-space: nowrap;"><span class="nodeLabel">events ringbuf</span></div></foreignObject></g></g><g class="node default default flowchart-label" id="flowchart-metrics-10" data-node="true" data-id="metrics" transform="translate(1792.3515625, 59)"><rect class="basic label-container" style="" rx="0" ry="0" x="-93.3046875" y="-17" width="186.609375" height="34"/><g class="label" style="" transform="translate(-85.8046875, -9.5)"><rect/><foreignObject width="171.609375" height="19"><div xmlns="http://www.w3.org/1999/xhtml" style="display: inline-block; white-space: nowrap;"><span class="nodeLabel">Agent metrics/events</span></div></foreignObject></g></g></g></g></g></svg>