<svg id="my-svg" width="100%" xmlns="http://www.w3.org/2000/svg" xmlns:xlink="http://www.w3.org/1999/xlink" class="flowchart" style="max-width: 1263.39px; background-color: white;" viewBox="0 0 1263.39453125 2396.375" role="graphics-document document" aria-roledescription="flowchart-v2"><style>#my-svg{font-family:"trebuchet ms",verdana,arial,sans-serif;font-size:16px;fill:#334155;}@keyframes edge-animation-frame{from{stroke-dashoffset:0;}}@keyframes dash{to{stroke-dashoffset:0;}}#my-svg .edge-animation-slow{stroke-dasharray:9,5!important;stroke-dashoffset:900;animation:dash 50s linear infinite;stroke-linecap:round;}#my-svg .edge-animation-fast{stroke-dasharray:9,5!important;stroke-dashoffset:900;animation:dash 20s linear infinite;stroke-linecap:round;}#my-svg .error-icon{fill:#f59e0b;}#my-svg .error-text{fill:#0a61f4;stroke:#0a61f4;}#my-svg .edge-thickness-normal{stroke-width:1px;}#my-svg .edge-thickness-thick{stroke-width:3.5px;}#my-svg .edge-pattern-solid{stroke-dasharray:0;}#my-svg .edge-thickness-invisible{stroke-width:0;fill:none;}#my-svg .edge-pattern-dashed{stroke-dasharray:3;}#my-svg .edge-pattern-dotted{stroke-dasharray:2;}#my-svg .marker{fill:#94a3b8;stroke:#94a3b8;}#my-svg .marker.cross{stroke:#94a3b8;}#my-svg svg{font-family:"trebuchet ms",verdana,arial,sans-serif;font-size:16px;}#my-svg p{margin:0;}#my-svg .label{font-family:"trebuchet ms",verdana,arial,sans-serif;color:#ffffff;}#my-svg .cluster-label text{fill:#1e293b;}#my-svg .cluster-label span{color:#1e293b;}#my-svg .cluster-label span p{background-color:transparent;}#my-svg .label text,#my-svg span{fill:#ffffff;color:#ffffff;}#my-svg .node rect,#my-svg .node circle,#my-svg .node ellipse,#my-svg .node polygon,#my-svg .node path{fill:#f8fafc;stroke:#cbd5e1;stroke-width:1px;}#my-svg .rough-node .label text,#my-svg .node .label text,#my-svg .image-shape .label,#my-svg .icon-shape .label{text-anchor:middle;}#my-svg .node .katex path{fill:#000;stroke:#000;stroke-width:1px;}#my-svg .rough-node .label,#my-svg .node .label,#my-svg .image-shape .label,#my-svg .icon-shape .label{text-align:center;}#my-svg .node.clickable{cursor:pointer;}#my-svg .root .anchor path{fill:#94a3b8!important;stroke-width:0;stroke:#94a3b8;}#my-svg .arrowheadPath{fill:#000000;}#my-svg .edgePath .path{stroke:#94a3b8;stroke-width:1px;}#my-svg .flowchart-link{stroke:#94a3b8;fill:none;}#my-svg .edgeLabel{background-color:#ffffff;text-align:center;}#my-svg .edgeLabel p{background-color:#ffffff;}#my-svg .edgeLabel rect{opacity:0.5;background-color:#ffffff;fill:#ffffff;}#my-svg .labelBkg{background-color:rgba(255, 255, 255, 0.5);}#my-svg .cluster rect{fill:#f1f5f9;stroke:#e2e8f0;stroke-width:1px;}#my-svg .cluster text{fill:#1e293b;}#my-svg .cluster span{color:#1e293b;}#my-svg div.mermaidTooltip{position:absolute;text-align:center;max-width:200px;padding:2px;font-family:"trebuchet ms",verdana,arial,sans-serif;font-size:12px;background:#f59e0b;border:1px solid hsl(37.6923076923, 52.125984252%, 40.1960784314%);border-radius:2px;pointer-events:none;z-index:100;}#my-svg .flowchartTitleText{text-anchor:middle;font-size:18px;fill:#334155;}#my-svg rect.text{fill:none;stroke-width:0;}#my-svg .icon-shape,#my-svg .image-shape{background-color:#ffffff;text-align:center;}#my-svg .icon-shape p,#my-svg .image-shape p{background-color:#ffffff;padding:2px;}#my-svg .icon-shape .label rect,#my-svg .image-shape .label rect{opacity:0.5;background-color:#ffffff;fill:#ffffff;}#my-svg .label-icon{display:inline-block;height:1em;overflow:visible;vertical-align:-0.125em;}#my-svg .node .label-icon path{fill:currentColor;stroke:revert;stroke-width:revert;}#my-svg .node .neo-node{stroke:#cbd5e1;}#my-svg [data-look="neo"].node rect,#my-svg [data-look="neo"].cluster rect,#my-svg [data-look="neo"].node polygon{stroke:url(#my-svg-gradient);filter:drop-shadow( 1px 2px 2px rgba(185,185,185,1));}#my-svg [data-look="neo"].node path{stroke:url(#my-svg-gradient);stroke-width:1px;}#my-svg [data-look="neo"].node .outer-path{filter:drop-shadow( 1px 2px 2px rgba(185,185,185,1));}#my-svg [data-look="neo"].node .neo-line path{stroke:#cbd5e1;filter:none;}#my-svg [data-look="neo"].node circle{stroke:url(#my-svg-gradient);filter:drop-shadow( 1px 2px 2px rgba(185,185,185,1));}#my-svg [data-look="neo"].node circle .state-start{fill:#000000;}#my-svg [data-look="neo"].icon-shape .icon{fill:url(#my-svg-gradient);filter:drop-shadow( 1px 2px 2px rgba(185,185,185,1));}#my-svg [data-look="neo"].icon-shape .icon-neo path{stroke:url(#my-svg-gradient);filter:drop-shadow( 1px 2px 2px rgba(185,185,185,1));}#my-svg :root{--mermaid-font-family:"trebuchet ms",verdana,arial,sans-serif;}</style><g><marker id="my-svg_flowchart-v2-pointEnd" class="marker flowchart-v2" viewBox="0 0 10 10" refX="5" refY="5" markerUnits="userSpaceOnUse" markerWidth="8" markerHeight="8" orient="auto"><path d="M 0 0 L 10 5 L 0 10 z" class="arrowMarkerPath" style="stroke-width: 1; stroke-dasharray: 1, 0;"/></marker><marker id="my-svg_flowchart-v2-pointStart" class="marker flowchart-v2" viewBox="0 0 10 10" refX="4.5" refY="5" markerUnits="userSpaceOnUse" markerWidth="8" markerHeight="8" orient="auto"><path d="M 0 5 L 10 10 L 10 0 z" class="arrowMarkerPath" style="stroke-width: 1; stroke-dasharray: 1, 0;"/></marker><marker id="my-svg_flowchart-v2-pointEnd-margin" class="marker flowchart-v2" viewBox="0 0 11.5 14" refX="11.5" refY="7" markerUnits="userSpaceOnUse" markerWidth="10.5" markerHeight="14" orient="auto"><path d="M 0 0 L 11.5 7 L 0 14 z" class="arrowMarkerPath" style="stroke-width: 0; stroke-dasharray: 1, 0;"/></marker><marker id="my-svg_flowchart-v2-pointStart-margin" class="marker flowchart-v2" viewBox="0 0 11.5 14" refX="1" refY="7" markerUnits="userSpaceOnUse" markerWidth="11.5" markerHeight="14" orient="auto"><polygon points="0,7 11.5,14 11.5,0" class="arrowMarkerPath" style="stroke-width: 0; stroke-dasharray: 1, 0;"/></marker><marker id="my-svg_flowchart-v2-circleEnd" class="marker flowchart-v2" viewBox="0 0 10 10" refX="11" refY="5" markerUnits="userSpaceOnUse" markerWidth="11" markerHeight="11" orient="auto"><circle cx="5" cy="5" r="5" class="arrowMarkerPath" style="stroke-width: 1; stroke-dasharray: 1, 0;"/></marker><marker id="my-svg_flowchart-v2-circleStart" class="marker flowchart-v2" viewBox="0 0 10 10" refX="-1" refY="5" markerUnits="userSpaceOnUse" markerWidth="11" markerHeight="11" orient="auto"><circle cx="5" cy="5" r="5" class="arrowMarkerPath" style="stroke-width: 1; stroke-dasharray: 1, 0;"/></marker><marker id="my-svg_flowchart-v2-circleEnd-margin" class="marker flowchart-v2" viewBox="0 0 10 10" refY="5" refX="12.25" markerUnits="userSpaceOnUse" markerWidth="14" markerHeight="14" orient="auto"><circle cx="5" cy="5" r="5" class="arrowMarkerPath" style="stroke-width: 0; stroke-dasharray: 1, 0;"/></marker><marker id="my-svg_flowchart-v2-circleStart-margin" class="marker flowchart-v2" viewBox="0 0 10 10" refX="-2" refY="5" markerUnits="userSpaceOnUse" markerWidth="14" markerHeight="14" orient="auto"><circle cx="5" cy="5" r="5" class="arrowMarkerPath" style="stroke-width: 0; stroke-dasharray: 1, 0;"/></marker><marker id="my-svg_flowchart-v2-crossEnd" class="marker cross flowchart-v2" viewBox="0 0 11 11" refX="12" refY="5.2" markerUnits="userSpaceOnUse" markerWidth="11" markerHeight="11" orient="auto"><path d="M 1,1 l 9,9 M 10,1 l -9,9" class="arrowMarkerPath" style="stroke-width: 2; stroke-dasharray: 1, 0;"/></marker><marker id="my-svg_flowchart-v2-crossStart" class="marker cross flowchart-v2" viewBox="0 0 11 11" refX="-1" refY="5.2" markerUnits="userSpaceOnUse" markerWidth="11" markerHeight="11" orient="auto"><path d="M 1,1 l 9,9 M 10,1 l -9,9" class="arrowMarkerPath" style="stroke-width: 2; stroke-dasharray: 1, 0;"/></marker><marker id="my-svg_flowchart-v2-crossEnd-margin" class="marker cross flowchart-v2" viewBox="0 0 15 15" refX="17.7" refY="7.5" markerUnits="userSpaceOnUse" markerWidth="12" markerHeight="12" orient="auto"><path d="M 1,1 L 14,14 M 1,14 L 14,1" class="arrowMarkerPath" style="stroke-width: 2.5;"/></marker><marker id="my-svg_flowchart-v2-crossStart-margin" class="marker cross flowchart-v2" viewBox="0 0 15 15" refX="-3.5" refY="7.5" markerUnits="userSpaceOnUse" markerWidth="12" markerHeight="12" orient="auto"><path d="M 1,1 L 14,14 M 1,14 L 14,1" class="arrowMarkerPath" style="stroke-width: 2.5; stroke-dasharray: 1, 0;"/></marker><g class="root"><g class="clusters"/><g class="edgePaths"><path d="M314.816,47.5L314.733,51.583C314.65,55.667,314.483,63.833,314.4,71.417C314.316,79,314.316,86,314.316,89.5L314.316,93" id="my-svg-L_packet_runtime_0" class="edge-thickness-normal edge-pattern-solid edge-thickness-normal edge-pattern-solid flowchart-link" style=";" data-edge="true" data-et="edge" data-id="L_packet_runtime_0" data-points="W3sieCI6MzE0LjgxNjQwNjI1LCJ5Ijo0Ny40OTk5OTk5OTk5OTk5OH0seyJ4IjozMTQuMzE2NDA2MjUsInkiOjcyfSx7IngiOjMxNC4zMTY0MDYyNSwieSI6OTd9XQ==" data-look="classic" marker-end="url(#my-svg_flowchart-v2-pointEnd)"/><path d="M250.853,259.411L229.374,276.155C207.895,292.899,164.938,326.387,143.459,366.714C121.98,407.042,121.98,454.208,121.98,501.375C121.98,548.542,121.98,595.708,121.98,643.603C121.98,691.497,121.98,740.12,121.98,788.742C121.98,837.365,121.98,885.987,124.101,934.467C126.221,982.948,130.462,1031.286,132.583,1055.455L134.703,1079.625" id="my-svg-L_runtime_serviceDrop_0" class="edge-thickness-normal edge-pattern-solid edge-thickness-normal edge-pattern-solid flowchart-link" style=";" data-edge="true" data-et="edge" data-id="L_runtime_serviceDrop_0" data-points="W3sieCI6MjUwLjg1MjcwMjc4NTExNjc1LCJ5IjoyNTkuNDExMjk2NTM1MTE2OH0seyJ4IjoxMjEuOTgwNDY4NzUsInkiOjM1OS44NzV9LHsieCI6MTIxLjk4MDQ2ODc1LCJ5Ijo1MDEuMzc1fSx7IngiOjEyMS45ODA0Njg3NSwieSI6NjQyLjg3NX0seyJ4IjoxMjEuOTgwNDY4NzUsInkiOjc4OC43NDIxODc1fSx7IngiOjEyMS45ODA0Njg3NSwieSI6OTM0LjYwOTM3NX0seyJ4IjoxMzUuMDUzMDIyOTA0ODI5NTMsInkiOjEwODMuNjA5Mzc1fV0=" data-look="classic" marker-end="url(#my-svg_flowchart-v2-pointEnd)"/><path d="M377.78,259.411L399.259,276.155C420.738,292.899,463.695,326.387,485.174,348.631C506.652,370.875,506.652,381.875,506.652,387.375L506.652,392.875" id="my-svg-L_runtime_parse_0" class="edge-thickness-normal edge-pattern-solid edge-thickness-normal edge-pattern-solid flowchart-link" style=";" data-edge="true" data-et="edge" data-id="L_runtime_parse_0" data-points="W3sieCI6Mzc3Ljc4MDEwOTcxNDg4MzIsInkiOjI1OS40MTEyOTY1MzUxMTY4fSx7IngiOjUwNi42NTIzNDM3NSwieSI6MzU5Ljg3NX0seyJ4Ijo1MDYuNjUyMzQzNzUsInkiOjM5Ni44NzV9XQ==" data-look="classic" marker-end="url(#my-svg_flowchart-v2-pointEnd)"/><path d="M438.543,537.765L405.755,555.284C372.967,572.802,307.392,607.838,274.604,644.501C241.816,681.164,241.816,719.453,241.816,738.598L241.816,757.742" id="my-svg-L_parse_pass_0" class="edge-thickness-normal edge-pattern-solid edge-thickness-normal edge-pattern-solid flowchart-link" style=";" data-edge="true" data-et="edge" data-id="L_parse_pass_0" data-points="W3sieCI6NDM4LjU0Mjc5OTYxNTEwNTUsInkiOjUzNy43NjU0NTU4NjUxMDU0fSx7IngiOjI0MS44MTY0MDYyNSwieSI6NjQyLjg3NX0seyJ4IjoyNDEuODE2NDA2MjUsInkiOjc2MS43NDIxODc1fV0=" data-look="classic" marker-end="url(#my-svg_flowchart-v2-pointEnd)"/><path d="M506.652,605.875L506.652,612.042C506.652,618.208,506.652,630.542,506.652,653.853C506.652,677.164,506.652,711.453,506.652,728.598L506.652,745.742" id="my-svg-L_parse_malformed_0" class="edge-thickness-normal edge-pattern-solid edge-thickness-normal edge-pattern-solid flowchart-link" style=";" data-edge="true" data-et="edge" data-id="L_parse_malformed_0" data-points="W3sieCI6NTA2LjY1MjM0Mzc1LCJ5Ijo2MDUuODc1fSx7IngiOjUwNi42NTIzNDM3NSwieSI6NjQyLjg3NX0seyJ4Ijo1MDYuNjUyMzQzNzUsInkiOjc0OS43NDIxODc1fV0=" data-look="classic" marker-end="url(#my-svg_flowchart-v2-pointEnd)"/><path d="M576.794,535.733L613.248,553.59C649.702,571.447,722.611,607.161,759.065,630.518C795.52,653.875,795.52,664.875,795.52,670.375L795.52,675.875" id="my-svg-L_parse_service_0" class="edge-thickness-normal edge-pattern-solid edge-thickness-normal edge-pattern-solid flowchart-link" style=";" data-edge="true" data-et="edge" data-id="L_parse_service_0" data-points="W3sieCI6NTc2Ljc5Mzg5MjU3Mjc3MTMsInkiOjUzNS43MzM0NTExNzcyMjg3fSx7IngiOjc5NS41MTk1MzEyNSwieSI6NjQyLjg3NX0seyJ4Ijo3OTUuNTE5NTMxMjUsInkiOjY3OS44NzV9XQ==" data-look="classic" marker-end="url(#my-svg_flowchart-v2-pointEnd)"/><path d="M720.643,822.733L679.568,841.379C638.492,860.025,556.342,897.317,468.34,940.488C380.338,983.658,286.484,1032.708,239.557,1057.232L192.63,1081.757" id="my-svg-L_service_serviceDrop_0" class="edge-thickness-normal edge-pattern-solid edge-thickness-normal edge-pattern-solid flowchart-link" style=";" data-edge="true" data-et="edge" data-id="L_service_serviceDrop_0" data-points="W3sieCI6NzIwLjY0MjczMjgzNzM0OCwieSI6ODIyLjczMjU3NjU4NzM0OH0seyJ4Ijo0NzQuMTkxNDA2MjUsInkiOjkzNC42MDkzNzV9LHsieCI6MTg5LjA4NTM4MjYzNDk0MzIsInkiOjEwODMuNjA5Mzc1fV0=" data-look="classic" marker-end="url(#my-svg_flowchart-v2-pointEnd)"/><path d="M809.73,883.399L811.011,891.934C812.293,900.469,814.855,917.539,816.137,931.574C817.418,945.609,817.418,956.609,817.418,962.109L817.418,967.609" id="my-svg-L_service_whitelist_0" class="edge-thickness-normal edge-pattern-solid edge-thickness-normal edge-pattern-solid flowchart-link" style=";" data-edge="true" data-et="edge" data-id="L_service_whitelist_0" data-points="W3sieCI6ODA5LjcyOTk1OTA0OTMxNTQsInkiOjg4My4zOTg5NDcyMDA2ODQ2fSx7IngiOjgxNy40MTc5Njg3NSwieSI6OTM0LjYwOTM3NX0seyJ4Ijo4MTcuNDE3OTY4NzUsInkiOjk3MS42MDkzNzV9XQ==" data-look="classic" marker-end="url(#my-svg_flowchart-v2-pointEnd)"/><path d="M754.486,1186.678L740.707,1203.333C726.928,1219.988,699.37,1253.299,685.591,1299.287C671.813,1345.276,671.813,1403.943,671.813,1462.609C671.813,1521.276,671.813,1579.943,686.775,1623.805C701.738,1667.667,731.663,1696.725,746.626,1711.253L761.589,1725.782" id="my-svg-L_whitelist_neighbor_0" class="edge-thickness-normal edge-pattern-solid edge-thickness-normal edge-pattern-solid flowchart-link" style=";" data-edge="true" data-et="edge" data-id="L_whitelist_neighbor_0" data-points="W3sieCI6NzU0LjQ4NjMyNjk2MjU4MSwieSI6MTE4Ni42Nzc3MzMyMTI1ODF9LHsieCI6NjcxLjgxMjUsInkiOjEyODYuNjA5Mzc1fSx7IngiOjY3MS44MTI1LCJ5IjoxNDYyLjYwOTM3NX0seyJ4Ijo2NzEuODEyNSwieSI6MTYzOC42MDkzNzV9LHsieCI6NzY0LjQ1ODYzNDM5MjE0MTYsInkiOjE3MjguNTY4NzA5MzU3ODU4M31d" data-look="classic" marker-end="url(#my-svg_flowchart-v2-pointEnd)"/><path d="M865.628,1201.399L873.169,1215.601C880.71,1229.803,895.793,1258.206,903.334,1277.908C910.875,1297.609,910.875,1308.609,910.875,1314.109L910.875,1319.609" id="my-svg-L_whitelist_threat_0" class="edge-thickness-normal edge-pattern-solid edge-thickness-normal edge-pattern-solid flowchart-link" style=";" data-edge="true" data-et="edge" data-id="L_whitelist_threat_0" data-points="W3sieCI6ODY1LjYyNzk4MzEwMTc3OCwieSI6MTIwMS4zOTkzNjA2NDgyMjJ9LHsieCI6OTEwLjg3NSwieSI6MTI4Ni42MDkzNzV9LHsieCI6OTEwLjg3NSwieSI6MTMyMy42MDkzNzV9XQ==" data-look="classic" marker-end="url(#my-svg_flowchart-v2-pointEnd)"/><path d="M852.046,1542.78L840.326,1558.752C828.606,1574.723,805.166,1606.666,763.993,1641.344C722.821,1676.022,663.915,1713.435,634.462,1732.141L605.009,1750.848" id="my-svg-L_threat_threatDrop_0" class="edge-thickness-normal edge-pattern-solid edge-thickness-normal edge-pattern-solid flowchart-link" style=";" data-edge="true" data-et="edge" data-id="L_threat_threatDrop_0" data-points="W3sieCI6ODUyLjA0NTgxODUwNTMzOCwieSI6MTU0Mi43ODAxOTM1MDUzMzh9LHsieCI6NzgxLjcyNjU2MjUsInkiOjE2MzguNjA5Mzc1fSx7IngiOjYwMS42MzIyNTU4MjEwNjE0LCJ5IjoxNzUyLjk5MjE4NzV9XQ==" data-look="classic" marker-end="url(#my-svg_flowchart-v2-pointEnd)"/><path d="M926.256,1586.228L927.342,1594.959C928.429,1603.689,930.601,1621.149,920.699,1643.346C910.798,1665.543,888.823,1692.477,877.835,1705.944L866.847,1719.41" id="my-svg-L_threat_neighbor_0" class="edge-thickness-normal edge-pattern-solid edge-thickness-normal edge-pattern-solid flowchart-link" style=";" data-edge="true" data-et="edge" data-id="L_threat_neighbor_0" data-points="W3sieCI6OTI2LjI1NjAzNTA5NTMzNzgsInkiOjE1ODYuMjI4MzM5OTA0NjYyM30seyJ4Ijo5MzIuNzczNDM3NSwieSI6MTYzOC42MDkzNzV9LHsieCI6ODY0LjMxODM2OTQ0ODkzNSwieSI6MTcyMi41MDk3NzU2OTg5MzQ4fV0=" data-look="classic" marker-end="url(#my-svg_flowchart-v2-pointEnd)"/><path d="M762.084,1829.041L744.723,1844.43C727.362,1859.819,692.64,1890.597,675.279,1928.153C657.918,1965.708,657.918,2010.042,657.918,2032.208L657.918,2054.375" id="my-svg-L_neighbor_neighborDrop_0" class="edge-thickness-normal edge-pattern-solid edge-thickness-normal edge-pattern-solid flowchart-link" style=";" data-edge="true" data-et="edge" data-id="L_neighbor_neighborDrop_0" data-points="W3sieCI6NzYyLjA4MzkzODY4MjIzMDcsInkiOjE4MjkuMDQwOTY5OTMyMjMwNn0seyJ4Ijo2NTcuOTE3OTY4NzUsInkiOjE5MjEuMzc1fSx7IngiOjY1Ny45MTc5Njg3NSwieSI6MjA1OC4zNzV9XQ==" data-look="classic" marker-end="url(#my-svg_flowchart-v2-pointEnd)"/><path d="M872.752,1829.041L890.113,1844.43C907.474,1859.819,942.196,1890.597,959.557,1911.486C976.918,1932.375,976.918,1943.375,976.918,1948.875L976.918,1954.375" id="my-svg-L_neighbor_rule_0" class="edge-thickness-normal edge-pattern-solid edge-thickness-normal edge-pattern-solid flowchart-link" style=";" data-edge="true" data-et="edge" data-id="L_neighbor_rule_0" data-points="W3sieCI6ODcyLjc1MTk5ODgxNzc2OTMsInkiOjE4MjkuMDQwOTY5OTMyMjMwNn0seyJ4Ijo5NzYuOTE3OTY4NzUsInkiOjE5MjEuMzc1fSx7IngiOjk3Ni45MTc5Njg3NSwieSI6MTk1OC4zNzV9XQ==" data-look="classic" marker-end="url(#my-svg_flowchart-v2-pointEnd)"/><path d="M913.313,2172.77L899.168,2189.538C885.023,2206.305,856.732,2239.84,842.587,2264.108C828.441,2288.375,828.441,2303.375,828.441,2310.875L828.441,2318.375" id="my-svg-L_rule_ruleDrop_0" class="edge-thickness-normal edge-pattern-solid edge-thickness-normal edge-pattern-solid flowchart-link" style=";" data-edge="true" data-et="edge" data-id="L_rule_ruleDrop_0" data-points="W3sieCI6OTEzLjMxMzI0NDc5NTU1NDIsInkiOjIxNzIuNzcwMjc2MDQ1NTU0fSx7IngiOjgyOC40NDE0MDYyNSwieSI6MjI3My4zNzV9LHsieCI6ODI4LjQ0MTQwNjI1LCJ5IjoyMzIyLjM3NX1d" data-look="classic" marker-end="url(#my-svg_flowchart-v2-pointEnd)"/><path d="M1040.523,2172.77L1054.668,2189.538C1068.813,2206.305,1097.104,2239.84,1111.249,2262.108C1125.395,2284.375,1125.395,2295.375,1125.395,2300.875L1125.395,2306.375" id="my-svg-L_rule_redirect_0" class="edge-thickness-normal edge-pattern-solid edge-thickness-normal edge-pattern-solid flowchart-link" style=";" data-edge="true" data-et="edge" data-id="L_rule_redirect_0" data-points="W3sieCI6MTA0MC41MjI2OTI3MDQ0NDYsInkiOjIxNzIuNzcwMjc2MDQ1NTU0fSx7IngiOjExMjUuMzk0NTMxMjUsInkiOjIyNzMuMzc1fSx7IngiOjExMjUuMzk0NTMxMjUsInkiOjIzMTAuMzc1fV0=" data-look="classic" marker-end="url(#my-svg_flowchart-v2-pointEnd)"/></g><g class="edgeLabels"><g class="edgeLabel"><g class="label" data-id="L_packet_runtime_0" transform="translate(0, 0)"><foreignObject width="0" height="0"><div xmlns="http://www.w3.org/1999/xhtml" class="labelBkg" style="display: table-cell; white-space: nowrap; line-height: 1.5; max-width: 200px; text-align: center;"><span class="edgeLabel"></span></div></foreignObject></g></g><g class="edgeLabel" transform="translate(121.98046875, 642.875)"><g class="label" data-id="L_runtime_serviceDrop_0" transform="translate(-10.8828125, -12)"><foreignObject width="21.765625" height="24"><div xmlns="http://www.w3.org/1999/xhtml" class="labelBkg" style="display: table-cell; white-space: nowrap; line-height: 1.5; max-width: 200px; text-align: center;"><span class="edgeLabel"><p>No</p></span></div></foreignObject></g></g><g class="edgeLabel" transform="translate(506.65234375, 359.875)"><g class="label" data-id="L_runtime_parse_0" transform="translate(-12.9140625, -12)"><foreignObject width="25.828125" height="24"><div xmlns="http://www.w3.org/1999/xhtml" class="labelBkg" style="display: table-cell; white-space: nowrap; line-height: 1.5; max-width: 200px; text-align: center;"><span class="edgeLabel"><p>Yes</p></span></div></foreignObject></g></g><g class="edgeLabel" transform="translate(241.81640625, 642.875)"><g class="label" data-id="L_parse_pass_0" transform="translate(-35.5, -12)"><foreignObject width="71" height="24"><div xmlns="http://www.w3.org/1999/xhtml" class="labelBkg" style="display: table-cell; white-space: nowrap; line-height: 1.5; max-width: 200px; text-align: center;"><span class="edgeLabel"><p>Non IPv4</p></span></div></foreignObject></g></g><g class="edgeLabel" transform="translate(506.65234375, 642.875)"><g class="label" data-id="L_parse_malformed_0" transform="translate(-85.296875, -12)"><foreignObject width="170.59375" height="24"><div xmlns="http://www.w3.org/1999/xhtml" class="labelBkg" style="display: table-cell; white-space: nowrap; line-height: 1.5; max-width: 200px; text-align: center;"><span class="edgeLabel"><p>Bad IPv4 or fragment</p></span></div></foreignObject></g></g><g class="edgeLabel" transform="translate(795.51953125, 642.875)"><g class="label" data-id="L_parse_service_0" transform="translate(-38.828125, -12)"><foreignObject width="77.65625" height="24"><div xmlns="http://www.w3.org/1999/xhtml" class="labelBkg" style="display: table-cell; white-space: nowrap; line-height: 1.5; max-width: 200px; text-align: center;"><span class="edgeLabel"><p>Valid IPv4</p></span></div></foreignObject></g></g><g class="edgeLabel" transform="translate(451.57516, 946.42891)"><g class="label" data-id="L_service_serviceDrop_0" transform="translate(-10.8828125, -12)"><foreignObject width="21.765625" height="24"><div xmlns="http://www.w3.org/1999/xhtml" class="labelBkg" style="display: table-cell; white-space: nowrap; line-height: 1.5; max-width: 200px; text-align: center;"><span class="edgeLabel"><p>No</p></span></div></foreignObject></g></g><g class="edgeLabel" transform="translate(817.41796875, 934.609375)"><g class="label" data-id="L_service_whitelist_0" transform="translate(-12.9140625, -12)"><foreignObject width="25.828125" height="24"><div xmlns="http://www.w3.org/1999/xhtml" class="labelBkg" style="display: table-cell; white-space: nowrap; line-height: 1.5; max-width: 200px; text-align: center;"><span class="edgeLabel"><p>Yes</p></span></div></foreignObject></g></g><g class="edgeLabel" transform="translate(671.8125, 1462.609375)"><g class="label" data-id="L_whitelist_neighbor_0" transform="translate(-12.9140625, -12)"><foreignObject width="25.828125" height="24"><div xmlns="http://www.w3.org/1999/xhtml" class="labelBkg" style="display: table-cell; white-space: nowrap; line-height: 1.5; max-width: 200px; text-align: center;"><span class="edgeLabel"><p>Yes</p></span></div></foreignObject></g></g><g class="edgeLabel" transform="translate(910.875, 1286.609375)"><g class="label" data-id="L_whitelist_threat_0" transform="translate(-10.8828125, -12)"><foreignObject width="21.765625" height="24"><div xmlns="http://www.w3.org/1999/xhtml" class="labelBkg" style="display: table-cell; white-space: nowrap; line-height: 1.5; max-width: 200px; text-align: center;"><span class="edgeLabel"><p>No</p></span></div></foreignObject></g></g><g class="edgeLabel" transform="translate(741.84687, 1663.93806)"><g class="label" data-id="L_threat_threatDrop_0" transform="translate(-12.9140625, -12)"><foreignObject width="25.828125" height="24"><div xmlns="http://www.w3.org/1999/xhtml" class="labelBkg" style="display: table-cell; white-space: nowrap; line-height: 1.5; max-width: 200px; text-align: center;"><span class="edgeLabel"><p>Yes</p></span></div></foreignObject></g></g><g class="edgeLabel" transform="translate(915.23075, 1660.11017)"><g class="label" data-id="L_threat_neighbor_0" transform="translate(-10.8828125, -12)"><foreignObject width="21.765625" height="24"><div xmlns="http://www.w3.org/1999/xhtml" class="labelBkg" style="display: table-cell; white-space: nowrap; line-height: 1.5; max-width: 200px; text-align: center;"><span class="edgeLabel"><p>No</p></span></div></foreignObject></g></g><g class="edgeLabel" transform="translate(657.91796875, 1921.375)"><g class="label" data-id="L_neighbor_neighborDrop_0" transform="translate(-10.8828125, -12)"><foreignObject width="21.765625" height="24"><div xmlns="http://www.w3.org/1999/xhtml" class="labelBkg" style="display: table-cell; white-space: nowrap; line-height: 1.5; max-width: 200px; text-align: center;"><span class="edgeLabel"><p>No</p></span></div></foreignObject></g></g><g class="edgeLabel" transform="translate(976.91796875, 1921.375)"><g class="label" data-id="L_neighbor_rule_0" transform="translate(-12.9140625, -12)"><foreignObject width="25.828125" height="24"><div xmlns="http://www.w3.org/1999/xhtml" class="labelBkg" style="display: table-cell; white-space: nowrap; line-height: 1.5; max-width: 200px; text-align: center;"><span class="edgeLabel"><p>Yes</p></span></div></foreignObject></g></g><g class="edgeLabel" transform="translate(828.44140625, 2273.375)"><g class="label" data-id="L_rule_ruleDrop_0" transform="translate(-12.9140625, -12)"><foreignObject width="25.828125" height="24"><div xmlns="http://www.w3.org/1999/xhtml" class="labelBkg" style="display: table-cell; white-space: nowrap; line-height: 1.5; max-width: 200px; text-align: center;"><span class="edgeLabel"><p>Yes</p></span></div></foreignObject></g></g><g class="edgeLabel" transform="translate(1125.39453125, 2273.375)"><g class="label" data-id="L_rule_redirect_0" transform="translate(-10.8828125, -12)"><foreignObject width="21.765625" height="24"><div xmlns="http://www.w3.org/1999/xhtml" class="labelBkg" style="display: table-cell; white-space: nowrap; line-height: 1.5; max-width: 200px; text-align: center;"><span class="edgeLabel"><p>No</p></span></div></foreignObject></g></g></g><g class="nodes"><g class="node default" id="my-svg-flowchart-packet-0" data-look="classic" transform="translate(314.31640625, 27.5)"><g class="basic label-container outer-path"><path d="M-41.1328125 -19.5 C-15.930041467434684 -19.5, 9.272729565130632 -19.5, 41.1328125 -19.5 C41.1328125 -19.5, 41.1328125 -19.5, 41.1328125 -19.5 C41.60031180658808 -19.48500820716992, 42.06781111317617 -19.470016414339838, 42.3821817896239 -19.45993515863156 C42.76468052000572 -19.42303596613365, 43.14717925038753 -19.386136773635744, 43.626417152847864 -19.3399052695533 C43.87436523905784 -19.299818945840997, 44.12231332526782 -19.259732622128695, 44.86040575967676 -19.140403561325776 C45.26455608065942 -19.0481588878888, 45.668706401642076 -18.955914214451823, 46.07907688623539 -18.862249829261074 C46.361248596428084 -18.778502746825414, 46.643420306620776 -18.694755664389756, 47.277422751460605 -18.50658706670804 C47.63642234588318 -18.374471897404657, 47.99542194030576 -18.242356728101278, 48.4505190951478 -18.074876768247425 C48.81658938809658 -17.912828308648415, 49.18265968104537 -17.7507798490494, 49.59354541279238 -17.568892924097174 C49.894570252476484 -17.411848458049587, 50.195595092160595 -17.254803992002003, 50.70180476407678 -16.990714730406097 C51.128393964241404 -16.7321138503499, 51.554983164406025 -16.4735129702937, 51.7707430736057 -16.342718045390892 C52.05460174468806 -16.144710524487664, 52.338460415770406 -15.946703003584437, 52.79596784457871 -15.627565626425154 C53.1330027416273 -15.358789264904182, 53.47003763867589 -15.090012903383212, 53.773266208501866 -14.848196188198123 C54.084102691492156 -14.565902718629006, 54.394939174482445 -14.283609249059891, 54.69862223676799 -14.007812326905688 C54.90029385257654 -13.799569826035771, 55.10196546838509 -13.591327325165853, 55.56823344296865 -13.10986736009568 C55.772635032747615 -12.869765621961362, 55.97703662252658 -12.629663883827043, 56.37852640812658 -12.158051136245305 C56.615992108488406 -11.839868731330812, 56.85345780885022 -11.521686326416319, 57.126171464640635 -11.156274872382312 C57.27966471923816 -10.92046801461049, 57.433157973835684 -10.684661156838668, 57.80809637860425 -10.108655082055241 C58.011900811808665 -9.746779673464095, 58.215705245013076 -9.384904264872947, 58.421498974273504 -9.019496659696287 C58.53991449809663 -8.773604290791246, 58.65833002191975 -8.527711921886205, 58.96385864880834 -7.893275190886684 C59.13711589019344 -7.465326454964606, 59.31037313157854 -7.037377719042528, 59.432946729970325 -6.734618561215508 C59.54342963813022 -6.401861644898769, 59.65391254629012 -6.069104728582031, 59.82683563421488 -5.548287939305138 C59.946069764300304 -5.093596524890554, 60.06530389438573 -4.63890511047597, 60.14390678754556 -4.339158212148133 C60.19516606080684 -4.075952677602707, 60.246425334068114 -3.8127471430572806, 60.382857276581774 -3.1121979531509023 C60.44628588178952 -2.6202582165544506, 60.50971448699727 -2.1283184799579993, 60.54270520250937 -1.872449005199798 C60.563623306293316 -1.5466326539752857, 60.58454141007727 -1.2208163027507732, 60.62279371591342 -0.6250057626472757 C60.62279371591342 -0.3331477593576343, 60.62279371591342 -0.0412897560679929, 60.62279371591342 0.625005762647271 C60.60370653696791 0.9223039816170209, 60.58461935802241 1.2196022005867708, 60.54270520250937 1.8724490051997846 C60.50653633164597 2.1529676252649224, 60.47036746078256 2.4334862453300596, 60.382857276581774 3.1121979531508885 C60.30041068050317 3.5355437989202834, 60.217964084424565 3.9588896446896786, 60.14390678754556 4.339158212148129 C60.06754182482967 4.630370911768028, 59.991176862113775 4.921583611387928, 59.82683563421489 5.548287939305125 C59.70326243167377 5.920470736642917, 59.579689229132654 6.29265353398071, 59.432946729970325 6.734618561215495 C59.24758037427082 7.192477043607956, 59.06221401857132 7.650335526000417, 58.96385864880834 7.893275190886679 C58.84541015045721 8.139236032104662, 58.726961652106084 8.385196873322645, 58.421498974273504 9.019496659696284 C58.230031152147156 9.359467166100986, 58.038563330020814 9.699437672505688, 57.80809637860425 10.108655082055236 C57.58348612516641 10.453716747633877, 57.35887587172858 10.798778413212519, 57.12617146464064 11.156274872382301 C56.88426035255787 11.480413724017533, 56.64234924047509 11.804552575652762, 56.37852640812658 12.158051136245302 C56.188706785965145 12.381024065478604, 55.998887163803715 12.603996994711906, 55.56823344296866 13.10986736009567 C55.24755819271726 13.440990883907922, 54.92688294246585 13.772114407720174, 54.69862223676799 14.007812326905684 C54.360684140713516 14.314718764390305, 54.02274604465905 14.621625201874926, 53.77326620850189 14.848196188198111 C53.400775391131816 15.145247702653796, 53.02828457376175 15.442299217109479, 52.79596784457871 15.627565626425152 C52.57592182270469 15.781060205645707, 52.35587580083068 15.934554784866261, 51.77074307360571 16.34271804539089 C51.437604951042665 16.544668333025516, 51.10446682847963 16.746618620660144, 50.70180476407678 16.990714730406093 C50.47761831549082 17.107672657035117, 50.25343186690486 17.22463058366414, 49.59354541279239 17.56889292409717 C49.28457354107145 17.705665606383096, 48.97560166935052 17.842438288669026, 48.450519095147804 18.07487676824742 C48.19261298367548 18.169788601327195, 47.93470687220316 18.264700434406972, 47.27742275146062 18.506587066708033 C46.903484115011686 18.61757009116212, 46.52954547856275 18.728553115616208, 46.07907688623541 18.86224982926107 C45.60794906949606 18.969781679035506, 45.13682125275671 19.07731352880994, 44.860405759676766 19.140403561325773 C44.47955059863508 19.201977270187108, 44.0986954375934 19.263550979048443, 43.62641715284788 19.3399052695533 C43.14304020949627 19.3865360619326, 42.65966326614466 19.433166854311903, 42.3821817896239 19.45993515863156 C41.996825994268754 19.472292768939045, 41.61147019891361 19.48465037924653, 41.13281250000001 19.5 C41.13281250000001 19.5, 41.13281250000001 19.5, 41.1328125 19.5 C9.14721502050925 19.5, -22.8383824589815 19.5, -41.13281249999999 19.5 C-41.62750515508947 19.48413616941212, -42.122197810178946 19.468272338824242, -42.38218178962389 19.45993515863156 C-42.683871604099714 19.430831505064162, -42.985561418575536 19.401727851496766, -43.62641715284787 19.3399052695533 C-43.90999089726393 19.294059265703343, -44.193564641679984 19.248213261853387, -44.86040575967676 19.140403561325773 C-45.18942867196957 19.065306228670096, -45.51845158426239 18.99020889601442, -46.079076886235384 18.862249829261074 C-46.38485494193528 18.771496507391113, -46.69063299763517 18.680743185521155, -47.27742275146059 18.506587066708043 C-47.685002431199194 18.356593976938978, -48.0925821109378 18.206600887169916, -48.4505190951478 18.074876768247425 C-48.84109029916485 17.901982482112196, -49.231661503181904 17.729088195976964, -49.59354541279238 17.568892924097174 C-49.984616230469655 17.364871529007754, -50.37568704814693 17.160850133918338, -50.70180476407678 16.990714730406097 C-51.0961141289841 16.751682076180245, -51.49042349389141 16.512649421954396, -51.770743073605686 16.3427180453909 C-52.02235634807457 16.167203517284513, -52.27396962254344 15.991688989178126, -52.79596784457871 15.627565626425156 C-53.06770089801767 15.410865747427827, -53.33943395145662 15.1941658684305, -53.773266208501866 14.848196188198125 C-53.98665054309071 14.654406181364644, -54.20003487767956 14.460616174531163, -54.698622236767974 14.007812326905697 C-54.8802454932141 13.820271403078406, -55.06186874966021 13.632730479251116, -55.568233442968655 13.109867360095677 C-55.86288655761076 12.763751045399871, -56.15753967225286 12.417634730704066, -56.378526408126575 12.158051136245307 C-56.63914104098905 11.80885127069107, -56.89975567385153 11.459651405136835, -57.126171464640635 11.156274872382316 C-57.348792356940805 10.814269399729389, -57.57141324924098 10.472263927076462, -57.80809637860425 10.108655082055249 C-57.953372690505205 9.850702279453339, -58.098649002406155 9.592749476851429, -58.421498974273504 9.019496659696289 C-58.59177067202808 8.665923836078209, -58.76204236978266 8.312351012460129, -58.96385864880834 7.893275190886686 C-59.058674922314246 7.659077162179152, -59.15349119582016 7.424879133471618, -59.432946729970325 6.73461856121551 C-59.57231015114424 6.314878141185423, -59.71167357231814 5.895137721155336, -59.82683563421488 5.5482879393051325 C-59.92178002629924 5.1862238231276425, -60.0167244183836 4.824159706950152, -60.14390678754556 4.339158212148136 C-60.232366423327214 3.8849366783599955, -60.32082605910886 3.4307151445718547, -60.382857276581774 3.112197953150904 C-60.44474772983965 2.6321878193352184, -60.50663818309752 2.1521776855195327, -60.54270520250937 1.872449005199809 C-60.559595412917396 1.609370344562348, -60.57648562332542 1.3462916839248869, -60.62279371591342 0.6250057626472781 C-60.62279371591342 0.2456191942503509, -60.62279371591342 -0.13376737414657636, -60.62279371591342 -0.6250057626472687 C-60.60573301911258 -0.8907398864669032, -60.588672322311744 -1.1564740102865376, -60.54270520250937 -1.8724490051997822 C-60.48472528902603 -2.3221297647475723, -60.4267453755427 -2.7718105242953626, -60.382857276581774 -3.112197953150895 C-60.32064432973422 -3.4316482865021154, -60.25843138288667 -3.7510986198533356, -60.14390678754556 -4.339158212148126 C-60.063450425360536 -4.645973191167572, -59.98299406317551 -4.952788170187017, -59.82683563421489 -5.548287939305123 C-59.73036600367156 -5.838839096153315, -59.633896373128245 -6.129390253001507, -59.43294672997033 -6.734618561215485 C-59.32727140088766 -6.995638667143177, -59.22159607180499 -7.2566587730708685, -58.96385864880834 -7.893275190886676 C-58.770158900768536 -8.295496862202006, -58.57645915272873 -8.697718533517335, -58.421498974273504 -9.019496659696282 C-58.27766175603832 -9.274894205770586, -58.13382453780313 -9.530291751844892, -57.80809637860425 -10.108655082055243 C-57.617236299979034 -10.401867415930793, -57.42637622135382 -10.695079749806341, -57.12617146464064 -11.156274872382308 C-56.919870824961734 -11.432698935177136, -56.713570185282826 -11.709122997971964, -56.37852640812659 -12.158051136245302 C-56.13846530824393 -12.44004056403102, -55.89840420836128 -12.722029991816738, -55.56823344296866 -13.10986736009567 C-55.24171967678974 -13.447019630954157, -54.915205910610815 -13.784171901812647, -54.698622236767996 -14.007812326905677 C-54.46888198188442 -14.216456347796889, -54.239141727000856 -14.425100368688101, -53.77326620850189 -14.848196188198107 C-53.46313517042084 -15.095517438134216, -53.1530041323398 -15.342838688070325, -52.79596784457872 -15.627565626425149 C-52.46120345490995 -15.861082772941218, -52.126439065241186 -16.094599919457288, -51.770743073605715 -16.342718045390885 C-51.49306114215952 -16.51105046407373, -51.21537921071332 -16.679382882756574, -50.70180476407679 -16.99071473040609 C-50.372183318174926 -17.16267802760048, -50.042561872273055 -17.334641324794873, -49.59354541279239 -17.56889292409717 C-49.206296637977715 -17.740316469380865, -48.81904786316304 -17.911740014664563, -48.450519095147804 -18.07487676824742 C-48.21532111722807 -18.161431798268154, -47.98012313930835 -18.24798682828889, -47.27742275146062 -18.506587066708033 C-46.98848344407838 -18.592342736465707, -46.699544136696154 -18.678098406223377, -46.07907688623541 -18.862249829261067 C-45.8062564353988 -18.9245193168447, -45.53343598456219 -18.98678880442834, -44.860405759676766 -19.140403561325773 C-44.44293869385112 -19.207896399023017, -44.025471628025464 -19.27538923672026, -43.62641715284788 -19.3399052695533 C-43.35836987431883 -19.36576346813898, -43.090322595789786 -19.39162166672466, -42.3821817896239 -19.45993515863156 C-42.035256490166745 -19.47106037773602, -41.68833119070959 -19.48218559684048, -41.13281250000001 -19.5 C-41.13281250000001 -19.5, -41.1328125 -19.5, -41.1328125 -19.5" stroke="none" stroke-width="0" fill="#f8fafc" style=""/><path d="M-41.1328125 -19.5 C-16.008065144219916 -19.5, 9.116682211560168 -19.5, 41.1328125 -19.5 M-41.1328125 -19.5 C-14.877058750995197 -19.5, 11.378694998009607 -19.5, 41.1328125 -19.5 M41.1328125 -19.5 C41.1328125 -19.5, 41.1328125 -19.5, 41.1328125 -19.5 M41.1328125 -19.5 C41.1328125 -19.5, 41.1328125 -19.5, 41.1328125 -19.5 M41.1328125 -19.5 C41.51894387916926 -19.48761751822918, 41.90507525833851 -19.475235036458354, 42.3821817896239 -19.45993515863156 M41.1328125 -19.5 C41.632555046938975 -19.483974229209526, 42.13229759387795 -19.467948458419052, 42.3821817896239 -19.45993515863156 M42.3821817896239 -19.45993515863156 C42.690121314529854 -19.430228603015344, 42.9980608394358 -19.40052204739913, 43.626417152847864 -19.3399052695533 M42.3821817896239 -19.45993515863156 C42.69506770652514 -19.429751430528466, 43.00795362342638 -19.399567702425372, 43.626417152847864 -19.3399052695533 M43.626417152847864 -19.3399052695533 C44.01291026014414 -19.27742006126445, 44.399403367440414 -19.2149348529756, 44.86040575967676 -19.140403561325776 M43.626417152847864 -19.3399052695533 C44.09813203867515 -19.26364206501632, 44.569846924502436 -19.18737886047934, 44.86040575967676 -19.140403561325776 M44.86040575967676 -19.140403561325776 C45.28758126543742 -19.042903539716594, 45.71475677119808 -18.94540351810741, 46.07907688623539 -18.862249829261074 M44.86040575967676 -19.140403561325776 C45.127500718392746 -19.079440879956344, 45.394595677108725 -19.018478198586916, 46.07907688623539 -18.862249829261074 M46.07907688623539 -18.862249829261074 C46.37160181234005 -18.77542996668788, 46.664126738444715 -18.68861010411469, 47.277422751460605 -18.50658706670804 M46.07907688623539 -18.862249829261074 C46.37088922934781 -18.775641457579553, 46.662701572460236 -18.689033085898036, 47.277422751460605 -18.50658706670804 M47.277422751460605 -18.50658706670804 C47.58282708856737 -18.394195447526005, 47.888231425674135 -18.28180382834397, 48.4505190951478 -18.074876768247425 M47.277422751460605 -18.50658706670804 C47.704004800635296 -18.349600929330517, 48.13058684980998 -18.192614791952998, 48.4505190951478 -18.074876768247425 M48.4505190951478 -18.074876768247425 C48.698300303003855 -17.965191377697927, 48.94608151085991 -17.85550598714843, 49.59354541279238 -17.568892924097174 M48.4505190951478 -18.074876768247425 C48.78935235542064 -17.924885335056185, 49.128185615693475 -17.77489390186495, 49.59354541279238 -17.568892924097174 M49.59354541279238 -17.568892924097174 C49.960614687164 -17.377393118776595, 50.32768396153561 -17.185893313456013, 50.70180476407678 -16.990714730406097 M49.59354541279238 -17.568892924097174 C49.92025288495604 -17.398449845135513, 50.246960357119704 -17.228006766173856, 50.70180476407678 -16.990714730406097 M50.70180476407678 -16.990714730406097 C50.95748853416773 -16.83571772641235, 51.21317230425867 -16.680720722418606, 51.7707430736057 -16.342718045390892 M50.70180476407678 -16.990714730406097 C50.985608246493186 -16.818671391550886, 51.26941172890959 -16.646628052695675, 51.7707430736057 -16.342718045390892 M51.7707430736057 -16.342718045390892 C52.0114390824998 -16.17481892914866, 52.2521350913939 -16.006919812906425, 52.79596784457871 -15.627565626425154 M51.7707430736057 -16.342718045390892 C52.02199520391591 -16.167455435815913, 52.27324733422612 -15.992192826240935, 52.79596784457871 -15.627565626425154 M52.79596784457871 -15.627565626425154 C53.094745601702925 -15.389298315928624, 53.39352335882714 -15.151031005432094, 53.773266208501866 -14.848196188198123 M52.79596784457871 -15.627565626425154 C53.12658205986164 -15.363909587750777, 53.457196275144575 -15.1002535490764, 53.773266208501866 -14.848196188198123 M53.773266208501866 -14.848196188198123 C54.12327290926535 -14.530329363234559, 54.47327961002884 -14.212462538270994, 54.69862223676799 -14.007812326905688 M53.773266208501866 -14.848196188198123 C54.038429572653484 -14.607381836713785, 54.3035929368051 -14.366567485229446, 54.69862223676799 -14.007812326905688 M54.69862223676799 -14.007812326905688 C54.97914415730214 -13.718150412676177, 55.259666077836286 -13.428488498446669, 55.56823344296865 -13.10986736009568 M54.69862223676799 -14.007812326905688 C54.91395056367765 -13.78546815058704, 55.129278890587315 -13.563123974268391, 55.56823344296865 -13.10986736009568 M55.56823344296865 -13.10986736009568 C55.88407774585718 -12.738858669872858, 56.199922048745705 -12.367849979650037, 56.37852640812658 -12.158051136245305 M55.56823344296865 -13.10986736009568 C55.85175784372718 -12.77682346596928, 56.135282244485715 -12.443779571842876, 56.37852640812658 -12.158051136245305 M56.37852640812658 -12.158051136245305 C56.673576526347496 -11.762710857448019, 56.9686266445684 -11.367370578650732, 57.126171464640635 -11.156274872382312 M56.37852640812658 -12.158051136245305 C56.657975555413984 -11.783614737221232, 56.937424702701385 -11.40917833819716, 57.126171464640635 -11.156274872382312 M57.126171464640635 -11.156274872382312 C57.37130796297062 -10.779679382580813, 57.61644446130061 -10.403083892779312, 57.80809637860425 -10.108655082055241 M57.126171464640635 -11.156274872382312 C57.34914834405072 -10.813722507932637, 57.5721252234608 -10.471170143482961, 57.80809637860425 -10.108655082055241 M57.80809637860425 -10.108655082055241 C58.032246056348974 -9.710654631603367, 58.2563957340937 -9.312654181151492, 58.421498974273504 -9.019496659696287 M57.80809637860425 -10.108655082055241 C57.93919655654876 -9.875873440782216, 58.07029673449327 -9.643091799509191, 58.421498974273504 -9.019496659696287 M58.421498974273504 -9.019496659696287 C58.54270540161361 -8.767808919922459, 58.66391182895372 -8.516121180148632, 58.96385864880834 -7.893275190886684 M58.421498974273504 -9.019496659696287 C58.590283966220994 -8.669011012497027, 58.75906895816849 -8.318525365297766, 58.96385864880834 -7.893275190886684 M58.96385864880834 -7.893275190886684 C59.11142121719135 -7.528792794052484, 59.25898378557435 -7.164310397218284, 59.432946729970325 -6.734618561215508 M58.96385864880834 -7.893275190886684 C59.150311632494756 -7.432732716358034, 59.33676461618117 -6.9721902418293835, 59.432946729970325 -6.734618561215508 M59.432946729970325 -6.734618561215508 C59.58977216649353 -6.262285333147663, 59.74659760301673 -5.789952105079817, 59.82683563421488 -5.548287939305138 M59.432946729970325 -6.734618561215508 C59.556912813841706 -6.361252467908085, 59.68087889771309 -5.987886374600662, 59.82683563421488 -5.548287939305138 M59.82683563421488 -5.548287939305138 C59.9092926099456 -5.233843753764558, 59.991749585676324 -4.9193995682239775, 60.14390678754556 -4.339158212148133 M59.82683563421488 -5.548287939305138 C59.921583744395626 -5.186972331095249, 60.01633185457637 -4.825656722885359, 60.14390678754556 -4.339158212148133 M60.14390678754556 -4.339158212148133 C60.23890336563557 -3.8513708611898245, 60.33389994372558 -3.363583510231516, 60.382857276581774 -3.1121979531509023 M60.14390678754556 -4.339158212148133 C60.196330035904644 -4.069975911481693, 60.24875328426373 -3.800793610815253, 60.382857276581774 -3.1121979531509023 M60.382857276581774 -3.1121979531509023 C60.44387153632044 -2.638983403246229, 60.5048857960591 -2.165768853341556, 60.54270520250937 -1.872449005199798 M60.382857276581774 -3.1121979531509023 C60.433398448013314 -2.720210608011068, 60.483939619444854 -2.328223262871234, 60.54270520250937 -1.872449005199798 M60.54270520250937 -1.872449005199798 C60.56089258297633 -1.5891658738376053, 60.57907996344329 -1.3058827424754127, 60.62279371591342 -0.6250057626472757 M60.54270520250937 -1.872449005199798 C60.567215918515494 -1.4906748187104986, 60.59172663452162 -1.1089006322211992, 60.62279371591342 -0.6250057626472757 M60.62279371591342 -0.6250057626472757 C60.62279371591342 -0.28541568451495425, 60.62279371591342 0.0541743936173672, 60.62279371591342 0.625005762647271 M60.62279371591342 -0.6250057626472757 C60.62279371591342 -0.20151704220741856, 60.62279371591342 0.22197167823243857, 60.62279371591342 0.625005762647271 M60.62279371591342 0.625005762647271 C60.59564284818402 1.0479024433186215, 60.56849198045462 1.470799123989972, 60.54270520250937 1.8724490051997846 M60.62279371591342 0.625005762647271 C60.60027564453632 0.9757429006056209, 60.577757573159225 1.3264800385639708, 60.54270520250937 1.8724490051997846 M60.54270520250937 1.8724490051997846 C60.50575237847389 2.1590478112584597, 60.46879955443841 2.4456466173171343, 60.382857276581774 3.1121979531508885 M60.54270520250937 1.8724490051997846 C60.502851662150675 2.1815451942501083, 60.462998121791976 2.4906413833004324, 60.382857276581774 3.1121979531508885 M60.382857276581774 3.1121979531508885 C60.32714477358262 3.398269881209874, 60.27143227058347 3.68434180926886, 60.14390678754556 4.339158212148129 M60.382857276581774 3.1121979531508885 C60.3019036521762 3.527877704918935, 60.22095002777063 3.943557456686981, 60.14390678754556 4.339158212148129 M60.14390678754556 4.339158212148129 C60.06184361153198 4.652100668693396, 59.97978043551839 4.965043125238663, 59.82683563421489 5.548287939305125 M60.14390678754556 4.339158212148129 C60.03132283362256 4.768489622650825, 59.91873887969956 5.197821033153522, 59.82683563421489 5.548287939305125 M59.82683563421489 5.548287939305125 C59.67085491482945 6.018077013941421, 59.514874195444 6.487866088577718, 59.432946729970325 6.734618561215495 M59.82683563421489 5.548287939305125 C59.72913095722095 5.8425588592846305, 59.63142628022702 6.136829779264136, 59.432946729970325 6.734618561215495 M59.432946729970325 6.734618561215495 C59.29393708706337 7.077975066764287, 59.154927444156414 7.421331572313079, 58.96385864880834 7.893275190886679 M59.432946729970325 6.734618561215495 C59.28531741860274 7.099265814512002, 59.13768810723515 7.46391306780851, 58.96385864880834 7.893275190886679 M58.96385864880834 7.893275190886679 C58.767288824949645 8.301456636049721, 58.57071900109095 8.709638081212763, 58.421498974273504 9.019496659696284 M58.96385864880834 7.893275190886679 C58.81305644512848 8.206419193478169, 58.66225424144862 8.519563196069658, 58.421498974273504 9.019496659696284 M58.421498974273504 9.019496659696284 C58.29446700231692 9.245054789287218, 58.16743503036033 9.470612918878153, 57.80809637860425 10.108655082055236 M58.421498974273504 9.019496659696284 C58.240735068393626 9.340461278916326, 58.05997116251375 9.66142589813637, 57.80809637860425 10.108655082055236 M57.80809637860425 10.108655082055236 C57.57241825689138 10.470719965443097, 57.336740135178516 10.83278484883096, 57.12617146464064 11.156274872382301 M57.80809637860425 10.108655082055236 C57.664525212686684 10.329218947160774, 57.52095404676911 10.549782812266312, 57.12617146464064 11.156274872382301 M57.12617146464064 11.156274872382301 C56.84758726840971 11.529552315789367, 56.56900307217878 11.902829759196432, 56.37852640812658 12.158051136245302 M57.12617146464064 11.156274872382301 C56.873776240005434 11.494461479715488, 56.62138101537023 11.832648087048677, 56.37852640812658 12.158051136245302 M56.37852640812658 12.158051136245302 C56.07947572652828 12.509333083316507, 55.78042504492998 12.860615030387715, 55.56823344296866 13.10986736009567 M56.37852640812658 12.158051136245302 C56.13002246433497 12.449958008897903, 55.881518520543366 12.741864881550507, 55.56823344296866 13.10986736009567 M55.56823344296866 13.10986736009567 C55.35884695959322 13.326076095130807, 55.149460476217776 13.542284830165944, 54.69862223676799 14.007812326905684 M55.56823344296866 13.10986736009567 C55.325374753817314 13.360638895713635, 55.08251606466596 13.6114104313316, 54.69862223676799 14.007812326905684 M54.69862223676799 14.007812326905684 C54.448970858635846 14.234539103111798, 54.199319480503696 14.461265879317914, 53.77326620850189 14.848196188198111 M54.69862223676799 14.007812326905684 C54.471267661510296 14.214289736682296, 54.243913086252604 14.42076714645891, 53.77326620850189 14.848196188198111 M53.77326620850189 14.848196188198111 C53.55871317078862 15.019296526278325, 53.34416013307535 15.19039686435854, 52.79596784457871 15.627565626425152 M53.77326620850189 14.848196188198111 C53.52316624559111 15.047644253179927, 53.27306628268035 15.247092318161743, 52.79596784457871 15.627565626425152 M52.79596784457871 15.627565626425152 C52.39999778104323 15.903777201479725, 52.004027717507746 16.179988776534298, 51.77074307360571 16.34271804539089 M52.79596784457871 15.627565626425152 C52.56334962123461 15.789830029149412, 52.330731397890496 15.95209443187367, 51.77074307360571 16.34271804539089 M51.77074307360571 16.34271804539089 C51.47888095995638 16.519646573857273, 51.187018846307055 16.696575102323653, 50.70180476407678 16.990714730406093 M51.77074307360571 16.34271804539089 C51.52935239867983 16.489050491100016, 51.287961723753966 16.635382936809144, 50.70180476407678 16.990714730406093 M50.70180476407678 16.990714730406093 C50.39292332833555 17.151857977584296, 50.084041892594314 17.313001224762495, 49.59354541279239 17.56889292409717 M50.70180476407678 16.990714730406093 C50.30617973953052 17.197112052301954, 49.910554714984265 17.403509374197817, 49.59354541279239 17.56889292409717 M49.59354541279239 17.56889292409717 C49.18457433994 17.749932286353086, 48.77560326708761 17.930971648609003, 48.450519095147804 18.07487676824742 M49.59354541279239 17.56889292409717 C49.306009851939024 17.696176387447593, 49.01847429108566 17.823459850798017, 48.450519095147804 18.07487676824742 M48.450519095147804 18.07487676824742 C48.12489916078429 18.194707914090873, 47.79927922642077 18.314539059934322, 47.27742275146062 18.506587066708033 M48.450519095147804 18.07487676824742 C47.98519388544386 18.246120746837555, 47.51986867573993 18.417364725427692, 47.27742275146062 18.506587066708033 M47.27742275146062 18.506587066708033 C47.03264449857614 18.579235967296878, 46.78786624569166 18.651884867885723, 46.07907688623541 18.86224982926107 M47.27742275146062 18.506587066708033 C46.851683001583886 18.6329443897179, 46.42594325170715 18.759301712727762, 46.07907688623541 18.86224982926107 M46.07907688623541 18.86224982926107 C45.635794946299406 18.96342603936647, 45.192513006363406 19.064602249471868, 44.860405759676766 19.140403561325773 M46.07907688623541 18.86224982926107 C45.6856596261517 18.952044751587632, 45.29224236606798 19.04183967391419, 44.860405759676766 19.140403561325773 M44.860405759676766 19.140403561325773 C44.49160176967515 19.200028930311575, 44.122797779673526 19.25965429929738, 43.62641715284788 19.3399052695533 M44.860405759676766 19.140403561325773 C44.48834177101451 19.20055598161336, 44.11627778235226 19.26070840190095, 43.62641715284788 19.3399052695533 M43.62641715284788 19.3399052695533 C43.342969651994736 19.367249109065106, 43.059522151141586 19.394592948576914, 42.3821817896239 19.45993515863156 M43.62641715284788 19.3399052695533 C43.365025706488886 19.365121388014344, 43.103634260129894 19.390337506475387, 42.3821817896239 19.45993515863156 M42.3821817896239 19.45993515863156 C42.07747531488 19.469706502201422, 41.7727688401361 19.479477845771285, 41.13281250000001 19.5 M42.3821817896239 19.45993515863156 C42.0493361616836 19.47060887007489, 41.7164905337433 19.481282581518226, 41.13281250000001 19.5 M41.13281250000001 19.5 C41.13281250000001 19.5, 41.13281250000001 19.5, 41.1328125 19.5 M41.13281250000001 19.5 C41.13281250000001 19.5, 41.13281250000001 19.5, 41.1328125 19.5 M41.1328125 19.5 C19.523197046548702 19.5, -2.0864184069025953 19.5, -41.13281249999999 19.5 M41.1328125 19.5 C14.419810665177181 19.5, -12.293191169645638 19.5, -41.13281249999999 19.5 M-41.13281249999999 19.5 C-41.60715567789811 19.484788737537794, -42.08149885579624 19.469577475075585, -42.38218178962389 19.45993515863156 M-41.13281249999999 19.5 C-41.623503965052805 19.484264479788752, -42.114195430105624 19.468528959577505, -42.38218178962389 19.45993515863156 M-42.38218178962389 19.45993515863156 C-42.713939398025765 19.42793090114593, -43.04569700642764 19.3959266436603, -43.62641715284787 19.3399052695533 M-42.38218178962389 19.45993515863156 C-42.758148543698596 19.423666098032147, -43.1341152977733 19.387397037432738, -43.62641715284787 19.3399052695533 M-43.62641715284787 19.3399052695533 C-43.98129081258617 19.282532048333145, -44.33616447232446 19.22515882711299, -44.86040575967676 19.140403561325773 M-43.62641715284787 19.3399052695533 C-44.05174088284154 19.27114222732271, -44.477064612835214 19.20237918509212, -44.86040575967676 19.140403561325773 M-44.86040575967676 19.140403561325773 C-45.10900922451164 19.08366144276643, -45.35761268934651 19.02691932420709, -46.079076886235384 18.862249829261074 M-44.86040575967676 19.140403561325773 C-45.134174786371844 19.077917567492477, -45.40794381306693 19.015431573659182, -46.079076886235384 18.862249829261074 M-46.079076886235384 18.862249829261074 C-46.34907720393947 18.78211515222709, -46.61907752164356 18.701980475193107, -47.27742275146059 18.506587066708043 M-46.079076886235384 18.862249829261074 C-46.406892406665186 18.76495590353629, -46.73470792709499 18.66766197781151, -47.27742275146059 18.506587066708043 M-47.27742275146059 18.506587066708043 C-47.631921836185334 18.376128126575722, -47.98642092091008 18.245669186443397, -48.4505190951478 18.074876768247425 M-47.27742275146059 18.506587066708043 C-47.640189545996165 18.373085532939466, -48.00295634053173 18.239583999170886, -48.4505190951478 18.074876768247425 M-48.4505190951478 18.074876768247425 C-48.80159601042685 17.919465432180058, -49.15267292570591 17.76405409611269, -49.59354541279238 17.568892924097174 M-48.4505190951478 18.074876768247425 C-48.84869649522613 17.898615444745655, -49.24687389530447 17.722354121243885, -49.59354541279238 17.568892924097174 M-49.59354541279238 17.568892924097174 C-49.85472964094903 17.43263327956433, -50.11591386910568 17.296373635031493, -50.70180476407678 16.990714730406097 M-49.59354541279238 17.568892924097174 C-49.92516717758382 17.395886061819354, -50.25678894237527 17.222879199541538, -50.70180476407678 16.990714730406097 M-50.70180476407678 16.990714730406097 C-51.039061264422834 16.78626785795713, -51.376317764768885 16.58182098550817, -51.770743073605686 16.3427180453909 M-50.70180476407678 16.990714730406097 C-51.02154334472479 16.79688732382481, -51.3412819253728 16.60305991724352, -51.770743073605686 16.3427180453909 M-51.770743073605686 16.3427180453909 C-51.99727753965834 16.18469740839155, -52.223812005711 16.0266767713922, -52.79596784457871 15.627565626425156 M-51.770743073605686 16.3427180453909 C-52.02976665800068 16.1620344058672, -52.28879024239568 15.9813507663435, -52.79596784457871 15.627565626425156 M-52.79596784457871 15.627565626425156 C-53.117605317363726 15.37106830101172, -53.43924279014873 15.114570975598284, -53.773266208501866 14.848196188198125 M-52.79596784457871 15.627565626425156 C-53.099200147403046 15.385745934273215, -53.40243245022739 15.143926242121276, -53.773266208501866 14.848196188198125 M-53.773266208501866 14.848196188198125 C-53.96596761525861 14.673189869181478, -54.15866902201536 14.498183550164828, -54.698622236767974 14.007812326905697 M-53.773266208501866 14.848196188198125 C-53.99616700507221 14.645763582384834, -54.21906780164256 14.443330976571543, -54.698622236767974 14.007812326905697 M-54.698622236767974 14.007812326905697 C-54.92115208614828 13.778031987380118, -55.14368193552859 13.548251647854539, -55.568233442968655 13.109867360095677 M-54.698622236767974 14.007812326905697 C-54.984659077416914 13.712455804874308, -55.27069591806585 13.417099282842921, -55.568233442968655 13.109867360095677 M-55.568233442968655 13.109867360095677 C-55.75619119192999 12.889081493066792, -55.94414894089133 12.668295626037905, -56.378526408126575 12.158051136245307 M-55.568233442968655 13.109867360095677 C-55.739878874969136 12.908242868766143, -55.911524306969625 12.706618377436607, -56.378526408126575 12.158051136245307 M-56.378526408126575 12.158051136245307 C-56.62901696700817 11.822416607503344, -56.87950752588976 11.486782078761383, -57.126171464640635 11.156274872382316 M-56.378526408126575 12.158051136245307 C-56.58398438215108 11.882756168658961, -56.789442356175584 11.607461201072617, -57.126171464640635 11.156274872382316 M-57.126171464640635 11.156274872382316 C-57.29709228493442 10.89369459374439, -57.46801310522821 10.631114315106467, -57.80809637860425 10.108655082055249 M-57.126171464640635 11.156274872382316 C-57.3305193962761 10.84234157428736, -57.53486732791156 10.528408276192405, -57.80809637860425 10.108655082055249 M-57.80809637860425 10.108655082055249 C-58.00429648673016 9.76028192266239, -58.20049659485608 9.411908763269532, -58.421498974273504 9.019496659696289 M-57.80809637860425 10.108655082055249 C-57.998122920752664 9.771243714196784, -58.18814946290108 9.433832346338319, -58.421498974273504 9.019496659696289 M-58.421498974273504 9.019496659696289 C-58.54880714183326 8.755138525800039, -58.67611530939301 8.490780391903789, -58.96385864880834 7.893275190886686 M-58.421498974273504 9.019496659696289 C-58.59732736168161 8.654385251118553, -58.77315574908971 8.289273842540819, -58.96385864880834 7.893275190886686 M-58.96385864880834 7.893275190886686 C-59.12247947866857 7.501478674406798, -59.281100308528806 7.109682157926909, -59.432946729970325 6.73461856121551 M-58.96385864880834 7.893275190886686 C-59.14229397567021 7.452536483725505, -59.32072930253209 7.011797776564324, -59.432946729970325 6.73461856121551 M-59.432946729970325 6.73461856121551 C-59.51698545242372 6.481507318937953, -59.60102417487711 6.228396076660396, -59.82683563421488 5.5482879393051325 M-59.432946729970325 6.73461856121551 C-59.524464600227915 6.458981317392072, -59.61598247048551 6.183344073568634, -59.82683563421488 5.5482879393051325 M-59.82683563421488 5.5482879393051325 C-59.91229737425389 5.222385285183952, -59.997759114292904 4.896482631062771, -60.14390678754556 4.339158212148136 M-59.82683563421488 5.5482879393051325 C-59.92021364898013 5.192197098717643, -60.01359166374538 4.836106258130153, -60.14390678754556 4.339158212148136 M-60.14390678754556 4.339158212148136 C-60.20446790621233 4.0281896673912465, -60.26502902487909 3.7172211226343572, -60.382857276581774 3.112197953150904 M-60.14390678754556 4.339158212148136 C-60.20318042019397 4.034800635985229, -60.262454052842386 3.730443059822321, -60.382857276581774 3.112197953150904 M-60.382857276581774 3.112197953150904 C-60.438843894907855 2.6779767972221107, -60.494830513233936 2.2437556412933173, -60.54270520250937 1.872449005199809 M-60.382857276581774 3.112197953150904 C-60.41755158544565 2.843115744768881, -60.45224589430953 2.5740335363868576, -60.54270520250937 1.872449005199809 M-60.54270520250937 1.872449005199809 C-60.5725455330259 1.407661770723553, -60.60238586354243 0.9428745362472968, -60.62279371591342 0.6250057626472781 M-60.54270520250937 1.872449005199809 C-60.559680307498354 1.608048042938207, -60.57665541248734 1.3436470806766048, -60.62279371591342 0.6250057626472781 M-60.62279371591342 0.6250057626472781 C-60.62279371591342 0.3084231218264599, -60.62279371591342 -0.008159518994358295, -60.62279371591342 -0.6250057626472687 M-60.62279371591342 0.6250057626472781 C-60.62279371591342 0.1706467126224132, -60.62279371591342 -0.2837123374024517, -60.62279371591342 -0.6250057626472687 M-60.62279371591342 -0.6250057626472687 C-60.595722578286875 -1.046660582609705, -60.568651440660325 -1.4683154025721414, -60.54270520250937 -1.8724490051997822 M-60.62279371591342 -0.6250057626472687 C-60.60234741750588 -0.9434733642996598, -60.58190111909835 -1.2619409659520509, -60.54270520250937 -1.8724490051997822 M-60.54270520250937 -1.8724490051997822 C-60.50927978458898 -2.1316899459949497, -60.47585436666859 -2.390930886790117, -60.382857276581774 -3.112197953150895 M-60.54270520250937 -1.8724490051997822 C-60.487398964530264 -2.3013932655137186, -60.43209272655116 -2.7303375258276548, -60.382857276581774 -3.112197953150895 M-60.382857276581774 -3.112197953150895 C-60.319879114300015 -3.435577506028415, -60.256900952018256 -3.758957058905935, -60.14390678754556 -4.339158212148126 M-60.382857276581774 -3.112197953150895 C-60.32391990241609 -3.4148289130732548, -60.2649825282504 -3.7174598729956143, -60.14390678754556 -4.339158212148126 M-60.14390678754556 -4.339158212148126 C-60.047531416360194 -4.706679271828032, -59.95115604517483 -5.07420033150794, -59.82683563421489 -5.548287939305123 M-60.14390678754556 -4.339158212148126 C-60.04678458463195 -4.709527264886734, -59.94966238171834 -5.079896317625343, -59.82683563421489 -5.548287939305123 M-59.82683563421489 -5.548287939305123 C-59.745977908768324 -5.79181852542116, -59.66512018332176 -6.035349111537196, -59.43294672997033 -6.734618561215485 M-59.82683563421489 -5.548287939305123 C-59.718654049588544 -5.874113635804915, -59.61047246496219 -6.199939332304707, -59.43294672997033 -6.734618561215485 M-59.43294672997033 -6.734618561215485 C-59.33872994815038 -6.967335833868315, -59.244513166330435 -7.200053106521145, -58.96385864880834 -7.893275190886676 M-59.43294672997033 -6.734618561215485 C-59.31512014845681 -7.025652495575856, -59.197293566943294 -7.316686429936226, -58.96385864880834 -7.893275190886676 M-58.96385864880834 -7.893275190886676 C-58.81312818211859 -8.206270230083273, -58.662397715428845 -8.519265269279872, -58.421498974273504 -9.019496659696282 M-58.96385864880834 -7.893275190886676 C-58.806640768500195 -8.219741483270289, -58.649422888192056 -8.5462077756539, -58.421498974273504 -9.019496659696282 M-58.421498974273504 -9.019496659696282 C-58.240990459967776 -9.34000780531523, -58.06048194566204 -9.660518950934176, -57.80809637860425 -10.108655082055243 M-58.421498974273504 -9.019496659696282 C-58.27982420010745 -9.27105456735464, -58.13814942594139 -9.522612475012997, -57.80809637860425 -10.108655082055243 M-57.80809637860425 -10.108655082055243 C-57.61147136109998 -10.41072391015187, -57.414846343595705 -10.712792738248497, -57.12617146464064 -11.156274872382308 M-57.80809637860425 -10.108655082055243 C-57.56040545227419 -10.489174859224816, -57.31271452594413 -10.869694636394387, -57.12617146464064 -11.156274872382308 M-57.12617146464064 -11.156274872382308 C-56.90299973130972 -11.455304663682586, -56.67982799797879 -11.754334454982864, -56.37852640812659 -12.158051136245302 M-57.12617146464064 -11.156274872382308 C-56.868547472432766 -11.501467551912349, -56.61092348022489 -11.846660231442387, -56.37852640812659 -12.158051136245302 M-56.37852640812659 -12.158051136245302 C-56.19084458492829 -12.378512885172293, -56.003162761729996 -12.598974634099285, -55.56823344296866 -13.10986736009567 M-56.37852640812659 -12.158051136245302 C-56.09824620482645 -12.487284211437004, -55.81796600152632 -12.816517286628708, -55.56823344296866 -13.10986736009567 M-55.56823344296866 -13.10986736009567 C-55.38195812121737 -13.30221192329221, -55.195682799466084 -13.494556486488753, -54.698622236767996 -14.007812326905677 M-55.56823344296866 -13.10986736009567 C-55.24232420831782 -13.446395402518451, -54.91641497366698 -13.782923444941233, -54.698622236767996 -14.007812326905677 M-54.698622236767996 -14.007812326905677 C-54.342693157562216 -14.331057699272984, -53.986764078356444 -14.654303071640292, -53.77326620850189 -14.848196188198107 M-54.698622236767996 -14.007812326905677 C-54.398919565151274 -14.279994363569827, -54.09921689353455 -14.552176400233977, -53.77326620850189 -14.848196188198107 M-53.77326620850189 -14.848196188198107 C-53.56168715140987 -15.016924855873821, -53.35010809431786 -15.185653523549533, -52.79596784457872 -15.627565626425149 M-53.77326620850189 -14.848196188198107 C-53.52006886052357 -15.05011433534641, -53.26687151254526 -15.252032482494716, -52.79596784457872 -15.627565626425149 M-52.79596784457872 -15.627565626425149 C-52.47320012523867 -15.852714415047393, -52.15043240589862 -16.077863203669637, -51.770743073605715 -16.342718045390885 M-52.79596784457872 -15.627565626425149 C-52.540827708128084 -15.805540340774618, -52.28568757167745 -15.983515055124087, -51.770743073605715 -16.342718045390885 M-51.770743073605715 -16.342718045390885 C-51.35803797699261 -16.592902300282102, -50.94533288037951 -16.84308655517332, -50.70180476407679 -16.99071473040609 M-51.770743073605715 -16.342718045390885 C-51.521249823305205 -16.49396231990814, -51.27175657300469 -16.645206594425392, -50.70180476407679 -16.99071473040609 M-50.70180476407679 -16.99071473040609 C-50.30134211777101 -17.199635836475252, -49.90087947146522 -17.408556942544415, -49.59354541279239 -17.56889292409717 M-50.70180476407679 -16.99071473040609 C-50.30211026535007 -17.199235094375272, -49.90241576662336 -17.407755458344454, -49.59354541279239 -17.56889292409717 M-49.59354541279239 -17.56889292409717 C-49.16385388079072 -17.759104618967893, -48.73416234878905 -17.94931631383861, -48.450519095147804 -18.07487676824742 M-49.59354541279239 -17.56889292409717 C-49.16709303253406 -17.757670742577133, -48.740640652275744 -17.9464485610571, -48.450519095147804 -18.07487676824742 M-48.450519095147804 -18.07487676824742 C-48.005232026193426 -18.238746525811177, -47.55994495723905 -18.402616283374932, -47.27742275146062 -18.506587066708033 M-48.450519095147804 -18.07487676824742 C-48.18971867110799 -18.170853735106764, -47.92891824706817 -18.26683070196611, -47.27742275146062 -18.506587066708033 M-47.27742275146062 -18.506587066708033 C-46.80733254636765 -18.64610737202579, -46.33724234127467 -18.785627677343545, -46.07907688623541 -18.862249829261067 M-47.27742275146062 -18.506587066708033 C-46.84404660531464 -18.635210832046347, -46.41067045916866 -18.763834597384662, -46.07907688623541 -18.862249829261067 M-46.07907688623541 -18.862249829261067 C-45.780074180145164 -18.930495245751164, -45.48107147405491 -18.99874066224126, -44.860405759676766 -19.140403561325773 M-46.07907688623541 -18.862249829261067 C-45.759244936747976 -18.935249384633053, -45.439412987260546 -19.008248940005043, -44.860405759676766 -19.140403561325773 M-44.860405759676766 -19.140403561325773 C-44.55738844487715 -19.189393050848203, -44.25437113007754 -19.238382540370633, -43.62641715284788 -19.3399052695533 M-44.860405759676766 -19.140403561325773 C-44.42453194908491 -19.21087225877038, -43.98865813849305 -19.281340956214986, -43.62641715284788 -19.3399052695533 M-43.62641715284788 -19.3399052695533 C-43.32988209144757 -19.368511650290998, -43.03334703004727 -19.397118031028697, -42.3821817896239 -19.45993515863156 M-43.62641715284788 -19.3399052695533 C-43.189936908968676 -19.38201199373603, -42.75345666508947 -19.424118717918763, -42.3821817896239 -19.45993515863156 M-42.3821817896239 -19.45993515863156 C-42.08537303994865 -19.46945323753046, -41.7885642902734 -19.478971316429362, -41.13281250000001 -19.5 M-42.3821817896239 -19.45993515863156 C-41.907388706436876 -19.475160848680694, -41.43259562324985 -19.49038653872983, -41.13281250000001 -19.5 M-41.13281250000001 -19.5 C-41.13281250000001 -19.5, -41.1328125 -19.5, -41.1328125 -19.5 M-41.13281250000001 -19.5 C-41.13281250000001 -19.5, -41.1328125 -19.5, -41.1328125 -19.5" stroke="#cbd5e1" stroke-width="1.3" fill="none" stroke-dasharray="0 0" style=""/></g><g class="label" style="" transform="translate(-48.2578125, -12)"><rect/><foreignObject width="96.515625" height="24"><div xmlns="http://www.w3.org/1999/xhtml" style="display: table-cell; white-space: nowrap; line-height: 1.5; max-width: 200px; text-align: center;"><span class="nodeLabel"><p>WAN packet</p></span></div></foreignObject></g></g><g class="node default" id="my-svg-flowchart-runtime-1" data-look="classic" transform="translate(314.31640625, 209.9375)"><polygon points="112.9375,0 225.875,-112.9375 112.9375,-225.875 0,-112.9375" class="label-container" transform="translate(-112.4375, 112.9375)"/><g class="label" style="" transform="translate(-85.9375, -12)"><rect/><foreignObject width="171.875" height="24"><div xmlns="http://www.w3.org/1999/xhtml" style="display: table-cell; white-space: nowrap; line-height: 1.5; max-width: 200px; text-align: center;"><span class="nodeLabel"><p>runtime_config valid?</p></span></div></foreignObject></g></g><g class="node default" id="my-svg-flowchart-parse-2" data-look="classic" transform="translate(506.65234375, 501.375)"><polygon points="104.5,0 209,-104.5 104.5,-209 0,-104.5" class="label-container" transform="translate(-104, 104.5)"/><g class="label" style="" transform="translate(-77.5, -12)"><rect/><foreignObject width="155" height="24"><div xmlns="http://www.w3.org/1999/xhtml" style="display: table-cell; white-space: nowrap; line-height: 1.5; max-width: 200px; text-align: center;"><span class="nodeLabel"><p>Parse VLAN IPv4 L4</p></span></div></foreignObject></g></g><g class="node default" id="my-svg-flowchart-pass-3" data-look="classic" transform="translate(241.81640625, 788.7421875)"><rect class="basic label-container" style="" x="-84.8359375" y="-27" width="169.671875" height="54"/><g class="label" style="" transform="translate(-54.8359375, -12)"><rect/><foreignObject width="109.671875" height="24"><div xmlns="http://www.w3.org/1999/xhtml" style="display: table-cell; white-space: nowrap; line-height: 1.5; max-width: 200px; text-align: center;"><span class="nodeLabel"><p>Pass non IPv4</p></span></div></foreignObject></g></g><g class="node default" id="my-svg-flowchart-malformed-4" data-look="classic" transform="translate(506.65234375, 788.7421875)"><rect class="basic label-container" style="" x="-130" y="-39" width="260" height="78"/><g class="label" style="" transform="translate(-100, -24)"><rect/><foreignObject width="200" height="48"><div xmlns="http://www.w3.org/1999/xhtml" style="display: table; white-space: break-spaces; line-height: 1.5; max-width: 200px; text-align: center; width: 200px;"><span class="nodeLabel"><p>Drop malformed or fragment</p></span></div></foreignObject></g></g><g class="node default" id="my-svg-flowchart-service-5" data-look="classic" transform="translate(795.51953125, 788.7421875)"><polygon points="108.8671875,0 217.734375,-108.8671875 108.8671875,-217.734375 0,-108.8671875" class="label-container" transform="translate(-108.3671875, 108.8671875)"/><g class="label" style="" transform="translate(-81.8671875, -12)"><rect/><foreignObject width="163.734375" height="24"><div xmlns="http://www.w3.org/1999/xhtml" style="display: table-cell; white-space: nowrap; line-height: 1.5; max-width: 200px; text-align: center;"><span class="nodeLabel"><p>Service allowlist hit?</p></span></div></foreignObject></g></g><g class="node default" id="my-svg-flowchart-serviceDrop-6" data-look="classic" transform="translate(137.421875, 1110.609375)"><rect class="basic label-container" style="" x="-129.421875" y="-27" width="258.84375" height="54"/><g class="label" style="" transform="translate(-99.421875, -12)"><rect/><foreignObject width="198.84375" height="24"><div xmlns="http://www.w3.org/1999/xhtml" style="display: table-cell; white-space: nowrap; line-height: 1.5; max-width: 200px; text-align: center;"><span class="nodeLabel"><p>Drop not allowed service</p></span></div></foreignObject></g></g><g class="node default" id="my-svg-flowchart-whitelist-7" data-look="classic" transform="translate(817.41796875, 1110.609375)"><polygon points="139,0 278,-139 139,-278 0,-139" class="label-container" transform="translate(-138.5, 139)"/><g class="label" style="" transform="translate(-100, -24)"><rect/><foreignObject width="200" height="48"><div xmlns="http://www.w3.org/1999/xhtml" style="display: table; white-space: break-spaces; line-height: 1.5; max-width: 200px; text-align: center; width: 200px;"><span class="nodeLabel"><p>Global or service whitelist?</p></span></div></foreignObject></g></g><g class="node default" id="my-svg-flowchart-threat-8" data-look="classic" transform="translate(910.875, 1462.609375)"><polygon points="139,0 278,-139 139,-278 0,-139" class="label-container" transform="translate(-138.5, 139)"/><g class="label" style="" transform="translate(-100, -24)"><rect/><foreignObject width="200" height="48"><div xmlns="http://www.w3.org/1999/xhtml" style="display: table; white-space: break-spaces; line-height: 1.5; max-width: 200px; text-align: center; width: 200px;"><span class="nodeLabel"><p>Blacklist or UDP source port?</p></span></div></foreignObject></g></g><g class="node default" id="my-svg-flowchart-threatDrop-9" data-look="classic" transform="translate(559.12109375, 1779.9921875)"><rect class="basic label-container" style="" x="-103.9140625" y="-27" width="207.828125" height="54"/><g class="label" style="" transform="translate(-73.9140625, -12)"><rect/><foreignObject width="147.828125" height="24"><div xmlns="http://www.w3.org/1999/xhtml" style="display: table-cell; white-space: nowrap; line-height: 1.5; max-width: 200px; text-align: center;"><span class="nodeLabel"><p>Drop threat match</p></span></div></foreignObject></g></g><g class="node default" id="my-svg-flowchart-neighbor-10" data-look="classic" transform="translate(817.41796875, 1779.9921875)"><polygon points="104.3828125,0 208.765625,-104.3828125 104.3828125,-208.765625 0,-104.3828125" class="label-container" transform="translate(-103.8828125, 104.3828125)"/><g class="label" style="" transform="translate(-77.3828125, -12)"><rect/><foreignObject width="154.765625" height="24"><div xmlns="http://www.w3.org/1999/xhtml" style="display: table-cell; white-space: nowrap; line-height: 1.5; max-width: 200px; text-align: center;"><span class="nodeLabel"><p>Neighbor resolved?</p></span></div></foreignObject></g></g><g class="node default" id="my-svg-flowchart-neighborDrop-11" data-look="classic" transform="translate(657.91796875, 2097.375)"><rect class="basic label-container" style="" x="-130" y="-39" width="260" height="78"/><g class="label" style="" transform="translate(-100, -24)"><rect/><foreignObject width="200" height="48"><div xmlns="http://www.w3.org/1999/xhtml" style="display: table; white-space: break-spaces; line-height: 1.5; max-width: 200px; text-align: center; width: 200px;"><span class="nodeLabel"><p>Drop unresolved neighbor</p></span></div></foreignObject></g></g><g class="node default" id="my-svg-flowchart-rule-12" data-look="classic" transform="translate(976.91796875, 2097.375)"><polygon points="139,0 278,-139 139,-278 0,-139" class="label-container" transform="translate(-138.5, 139)"/><g class="label" style="" transform="translate(-100, -24)"><rect/><foreignObject width="200" height="48"><div xmlns="http://www.w3.org/1999/xhtml" style="display: table; white-space: break-spaces; line-height: 1.5; max-width: 200px; text-align: center; width: 200px;"><span class="nodeLabel"><p>Default rule over limit or drop?</p></span></div></foreignObject></g></g><g class="node default" id="my-svg-flowchart-ruleDrop-13" data-look="classic" transform="translate(828.44140625, 2349.375)"><rect class="basic label-container" style="" x="-116.953125" y="-27" width="233.90625" height="54"/><g class="label" style="" transform="translate(-86.953125, -12)"><rect/><foreignObject width="173.90625" height="24"><div xmlns="http://www.w3.org/1999/xhtml" style="display: table-cell; white-space: nowrap; line-height: 1.5; max-width: 200px; text-align: center;"><span class="nodeLabel"><p>Drop rule or rate limit</p></span></div></foreignObject></g></g><g class="node default" id="my-svg-flowchart-redirect-14" data-look="classic" transform="translate(1125.39453125, 2349.375)"><rect class="basic label-container" style="" x="-130" y="-39" width="260" height="78"/><g class="label" style="" transform="translate(-100, -24)"><rect/><foreignObject width="200" height="48"><div xmlns="http://www.w3.org/1999/xhtml" style="display: table; white-space: break-spaces; line-height: 1.5; max-width: 200px; text-align: center; width: 200px;"><span class="nodeLabel"><p>Rewrite MAC and XDP_REDIRECT</p></span></div></foreignObject></g></g></g></g></g><defs><filter id="my-svg-drop-shadow" height="130%" width="130%"><feDropShadow dx="4" dy="4" stdDeviation="0" flood-opacity="0.06" flood-color="#000000"/></filter></defs><defs><filter id="my-svg-drop-shadow-small" height="150%" width="150%"><feDropShadow dx="2" dy="2" stdDeviation="0" flood-opacity="0.06" flood-color="#000000"/></filter></defs><linearGradient id="my-svg-gradient" gradientUnits="objectBoundingBox" x1="0%" y1="0%" x2="100%" y2="0%"><stop offset="0%" stop-color="#3730a3" stop-opacity="1"/><stop offset="100%" stop-color="hsl(160.1183431953, 44.07960199%, 29.4117647059%)" stop-opacity="1"/></linearGradient></svg>